<svg xmlns="http://www.w3.org/2000/svg" fill="none" viewBox="0 0 1158 213">
  <path stroke="#465fff" stroke-linecap="round" stroke-width="8" d="M1057.2 179h96"/>
  <path fill="#0f1138" d="M293.3 126q-2.4 0-4.4-1.8a6 6 0 0 1-1.9-4.7V56.4q0-9.2 3.6-16 3.8-6.8 10.2-10.5 6.6-3.9 15.1-3.8 2.9 0 4.6 1.6 2 1.6 2 4.2 0 2.4-2 4.3a7 7 0 0 1-4.6 1.6q-4.7 0-8.3 2.2a15 15 0 0 0-5.6 6q-2 3.9-2 9.1v64.4q0 3-1.7 4.7a7 7 0 0 1-5 1.8m-11.8-56.4q-2.6 0-4.4-1.6a5 5 0 0 1-1.6-3.8q0-2.5 1.6-4 1.8-1.6 4.4-1.6h31.6q2.7 0 4.4 1.5 1.6 1.5 1.6 4.1a5 5 0 0 1-1.6 3.8 6 6 0 0 1-4.4 1.6zm94.6 57q-9.4 0-16.8-4.7a34 34 0 0 1-16-30.8 34.7 34.7 0 0 1 35.3-35.6 34 34 0 0 1 30.5 17.4 35 35 0 0 1 4.7 18.2h-5q0 10-4.3 18.2a31 31 0 0 1-28.4 17.3m2.5-11.6q6.5 0 11.7-3a23 23 0 0 0 8-8.6q3-5.5 3-12.3t-3-12.3A22 22 0 0 0 378.6 67a23 23 0 0 0-19.8 11.8q-3 5.4-3 12.3 0 6.8 3 12.3a24 24 0 0 0 8.2 8.5q5.2 3.1 11.6 3.1m28.7 11.2q-2.8 0-4.8-1.8a7 7 0 0 1-1.7-4.8V100l2.4-13.5 10.6 4.6v28.5q0 3-2 4.8a6 6 0 0 1-4.5 1.8m74.3.3q-10.2 0-18.3-4.6a35 35 0 0 1-12.5-12.6q-4.5-8.1-4.5-18.2 0-10.4 4.5-18.4 4.4-8.1 12.3-12.6 7.8-4.5 17.9-4.6A32 32 0 0 1 506 67q1.9 2.1 1.4 4.2a7 7 0 0 1-2.9 3.9 5 5 0 0 1-4 .9 8 8 0 0 1-3.9-2.3A21 21 0 0 0 481 67a22 22 0 0 0-19.3 11.4 27 27 0 0 0-2.9 12.7q0 6.9 2.9 12.3a23 23 0 0 0 8 8.5q5.1 3.1 12 3.1 4.4 0 7.7-1 3.4-1.2 6.3-3.5a7 7 0 0 1 4.2-1.8q2.3-.2 3.9 1.2a6 6 0 0 1 2.4 4.1q.3 2.1-1.5 4a33 33 0 0 1-23 8.5m87.3-.5a21 21 0 0 1-19.6-12.1q-3-5.7-3-12.7v-61q0-3 1.8-4.7a6 6 0 0 1 4.6-1.8q3 0 4.6 1.8a6 6 0 0 1 1.8 4.6v61.1q0 5.1 2.9 8.6a9 9 0 0 0 6.9 3.4h4.3q2.3 0 3.9 1.8a7 7 0 0 1 1.6 4.6q0 2.9-2.2 4.6a8 8 0 0 1-5.3 1.8zm-28.4-56.4q-2.7 0-4.4-1.6a5 5 0 0 1-1.7-3.8q0-2.5 1.7-4 1.7-1.6 4.4-1.6H570q2.7 0 4.4 1.5 1.6 1.5 1.6 4.1a5 5 0 0 1-1.6 3.8 6 6 0 0 1-4.4 1.6zm100.4 57q-8.9 0-16-3.6a28 28 0 0 1-11-11.2 37 37 0 0 1-4-17.8V62.4q0-2.8 1.8-4.6 2-2 4.7-2a6 6 0 0 1 4.6 2 6 6 0 0 1 2 4.6V94q0 7.1 2.6 12 2.7 4.5 7.3 6.8a24 24 0 0 0 20.1 0 18 18 0 0 0 7-5.9q2.5-3.6 2.5-8.3h8q0 7.9-3.9 14.3a28 28 0 0 1-10.6 10.2 31 31 0 0 1-15.2 3.7m28.2-.6q-2.7 0-4.7-1.8a7 7 0 0 1-1.8-4.7v-57q0-3 1.8-4.8a7 7 0 0 1 4.7-1.8q3 0 4.8 1.8a6 6 0 0 1 1.8 4.7v57.1q0 2.9-1.8 4.7a6 6 0 0 1-4.8 1.8"/>
  <path fill="#0f1138" d="m289 124.2-1.8 1.9zm1.6-83.8-2.2-1.2zm10.2-10.5 1.3 2.2zm19.7-2.2-1.7 1.9h.1zm0 8.5 1.7 1.8zM307.6 40l-1.3-2.1zm-5.6 6-2.2-1.1zm-25 22-1.6 1.9zm0-7.9-1.6-1.8zm40.4 0 1.7-1.8zm0 8 1.7 1.8zm-24.2 58v-2.6q-1.4 0-2.7-1l-1.7 1.7-1.7 1.9a9 9 0 0 0 6 2.4zm-4.4-1.9 1.7-1.8q-1-1-1-2.9h-5.1q0 3.9 2.7 6.6zm-1.9-4.7h2.5V56.4h-5v63.1zm0-63.1h2.5q0-8.7 3.3-14.8l-2.2-1.2-2.2-1.2q-3.9 7.5-3.9 17.2zm3.6-16 2.2 1.2q3.3-6.2 9.3-9.5l-1.3-2.2-1.2-2.2a29 29 0 0 0-11.2 11.5zm10.2-10.5 1.3 2.2q6-3.5 13.8-3.5v-5q-9.1 0-16.3 4.1zm15.1-3.8v2.5a4 4 0 0 1 3 1l1.6-1.9 1.7-1.8a9 9 0 0 0-6.3-2.3zm4.6 1.6-1.6 2q1 .8 1 2.2h5.1q0-3.7-2.8-6zm2 4.2H320q0 1.4-1.2 2.4l1.7 1.9 1.7 1.8a8 8 0 0 0 2.8-6zm-2 4.3-1.7-1.9a4 4 0 0 1-2.9 1v5a9 9 0 0 0 6.3-2.3zm-4.6 1.6v-2.5q-5.3 0-9.6 2.6l1.3 2.1 1.3 2.2q3-1.9 7-1.9zm-8.3 2.2-1.3-2.1q-4.2 2.5-6.5 7L302 46l2.2 1.2q1.8-3.2 4.7-5zm-5.6 6-2.3-1q-2.1 4.4-2.1 10.1h5q0-4.7 1.6-8zm-2 9.1h-2.4v64.4h5V55.1zm0 64.4h-2.4q0 2-1.1 3l1.8 1.7 1.7 1.8q2.7-2.7 2.6-6.5zm-1.7 4.7-1.8-1.7q-.9 1-3.2 1v5q4 .1 6.7-2.5zm-16.8-54.6V67q-1.8 0-2.7-.9l-1.7 1.8-1.6 1.9a9 9 0 0 0 6 2.2zM277 68l1.7-1.8q-.8-.7-.8-2h-5q0 3.4 2.5 5.7zm-1.6-3.8h2.5q0-1.6.8-2.3l-1.7-1.8-1.6-1.8a8 8 0 0 0-2.5 6zm1.6-4 1.7 1.7q.8-.8 2.7-.8v-5q-3.5-.1-6 2.2zm4.4-1.6V61H313v-5h-31.6zm31.6 0V61q1.9 0 2.7.8l1.7-1.8 1.7-1.8a9 9 0 0 0-6-2.2zm4.4 1.5-1.7 1.8q.8.7.8 2.3h5q0-3.5-2.4-6zm1.6 4.1h-2.5q0 1.3-.8 2l1.7 1.8 1.7 1.9a8 8 0 0 0 2.4-5.7zm-1.6 3.8-1.7-1.8q-.8.8-2.7.9v5q3.5 0 6-2.2zm-4.4 1.6V67h-31.6v5H313zm46.2 52.3-1.4 2.1zm-11.8-12.6-2.2 1.1zm.4-36.4-2.2-1.3zm12.7-12.7 1.2 2.2zm36 0-1.4 2.2zM409 73l-2.2 1.2zm4.7 18.2v2.5c1.4 0 2.5-1.1 2.5-2.5zm-5 0v-2.5a2.5 2.5 0 0 0-2.5 2.5zm-4.3 18.2-2.2-1.2zM392.7 122l1.3 2.2zm-2.5-10 1.2 2.2zm8-8.5 2.2 1.2zm0-24.6-2.2 1.2zm-8-8.6-1.4 2.1zm-23.3 0 1.2 2.2zm-8.2 8.6-2.2-1.2zm0 24.6-2.2 1.2zm8.2 8.5-1.4 2.2h.1zm35.5 12.5-1.8 1.7h.1zm-1.7-24.4-2.5-.4v.4zm2.4-13.5 1-2.3a2.5 2.5 0 0 0-3.5 1.8zm10.6 4.6h2.5q0-1.7-1.5-2.3zm-2 33.3 1.9 1.7zm-35.7 2.1V124q-8.7 0-15.5-4.2l-1.3 2.1-1.3 2.2q8 5 18 5zm-16.8-4.6 1.3-2q-6.9-4.6-10.9-11.8l-2.2 1.2-2.2 1.2A37 37 0 0 0 358 124zm-11.8-12.6 2.2-1.2a36 36 0 0 1-4-17h-4.9a41 41 0 0 0 4.5 19.3zM343.3 91h2.5q0-9.5 4.3-17l-2.2-1.2-2.2-1.2q-5 8.7-5 19.4zm4.6-18.2 2.1 1.3c3-5 7-9 11.8-11.8l-1.2-2.2-1.3-2.1a37 37 0 0 0-13.6 13.5zm12.7-12.7 1.2 2.2q7.5-4.5 16.8-4.4v-5q-10.6 0-19.3 5zm18-4.7V58q9.4 0 16.6 4.4l1.3-2.2 1.3-2.1q-8.6-5.1-19.2-5.1zm18 4.7-1.3 2.2q7.3 4.3 11.6 11.7l2.2-1.2 2.1-1.2A36 36 0 0 0 397.8 58zM409 73l-2.2 1.3q4.4 7.5 4.4 16.9h5q0-10.8-5-19.5zm4.7 18.2v-2.5h-5v5h5zm-5 0h-2.5q0 9.6-4 17l2.2 1.2 2.2 1.1a40 40 0 0 0 4.6-19.3zm-4.3 18.2-2.2-1.2q-4 7.4-10.8 11.7l1.3 2.1 1.4 2.1q8-5 12.5-13.6zM392.7 122l-1.3-2a29 29 0 0 1-15.4 4.1v5q10 0 18-5zm-14.2-6.9v2.5q7.2 0 13-3.4l-1.3-2.2-1.3-2q-4.5 2.6-10.4 2.6zm11.7-3 1.3 2q5.7-3.5 9-9.4l-2.3-1.2-2.2-1.2a20 20 0 0 1-7.2 7.6zm8-8.6 2.2 1.2q3.3-6.1 3.3-13.5h-5q0 6.2-2.7 11zm3-12.3h2.5q0-7.5-3.3-13.5l-2.2 1.2-2.2 1.2q2.7 4.8 2.7 11zm-3-12.3 2.2-1.2q-3.2-6-9-9.5l-1.2 2.1-1.3 2.2q4.5 2.7 7.1 7.6zm-8-8.6 1.3-2.1a24 24 0 0 0-13-3.6v5q5.9 0 10.3 2.8zM378.6 67v-2.5q-7 0-13 3.6l1.4 2.1 1.3 2.2q4.5-3 10.3-2.9zM367 70.2l-1.3-2.1a25 25 0 0 0-9.1 9.5l2.2 1.2L361 80q2.7-5 7.2-7.6zm-8.2 8.6-2.2-1.2q-3.3 6-3.3 13.5h5q0-6.4 2.7-11.1zm-3 12.3h-2.5q0 7.4 3.3 13.5l2.2-1.2 2.2-1.2q-2.7-5-2.7-11.1zm3 12.3-2.2 1.2q3.4 6 9 9.5l1.4-2.2 1.3-2q-4.5-3-7.4-7.8zm8.2 8.5-1.3 2.2q5.8 3.4 13 3.4v-5q-6 0-10.5-2.7zm40.3 14.3v-2.5q-2 0-3-1.2l-1.8 1.9-1.7 1.8q2.7 2.5 6.5 2.5zm-4.8-1.8 1.9-1.7a4 4 0 0 1-1.1-3h-5q0 3.7 2.4 6.4zm-1.7-4.8h2.5V100h-5v19.6zm0-19.6 2.4.5 2.4-13.6-2.4-.4-2.5-.5-2.4 13.6zm2.4-13.5-1 2.3 10.6 4.6 1-2.3 1-2.3-10.6-4.6zm10.6 4.6h-2.5v28.5h5V91.1zm0 28.5h-2.5a4 4 0 0 1-1.2 3l1.8 1.8 1.8 1.7a9 9 0 0 0 2.6-6.5zm-2 4.8-1.7-1.8q-.9 1-2.8 1v5.1q3.6 0 6.4-2.6zm51.5-2.5-1.3 2.2zm-12.5-12.6-2.2 1.2zm0-36.6-2.2-1.3zM463 60l1.2 2.2zm31.7-1.7-1 2.3zm11.3 8.6-2 1.7zm1.3 4.2-2.5-.5zm-2.9 3.9 1.5 2zm-4 .9-.5 2.4h.1zm-3.9-2.3-1.8 1.7zm-27-3.6 1.2 2.1zm-7.8 8.3 2.2 1.2zm0 25-2.3 1.1zm8 8.5-1.3 2.2zm19.7 2.1.8 2.4zm6.3-3.5-1.6-1.9zm4.2-1.8.2 2.5h.1zm3.9 1.2-1.6 2zm2.4 4.1-2.5.3zm-1.5 4 1.7 1.8zm-23 8.5V124q-9.7 0-17.1-4.2l-1.3 2.1-1.2 2.2q8.7 5 19.5 5zm-18.4-4.6 1.3-2.1q-7.4-4.5-11.7-11.8l-2.1 1.3-2.2 1.2A38 38 0 0 0 462 124zm-12.5-12.6 2.2-1.3q-4.2-7.5-4.2-17h-5q0 10.8 4.8 19.5zM446.3 91h2.5q0-9.9 4.2-17.2l-2.2-1.2-2.2-1.3a40 40 0 0 0-4.8 19.7zm4.5-18.4 2.2 1.2q4-7.5 11.3-11.6l-1.2-2.2-1.3-2.2q-8.4 5-13.2 13.5zM463 60l1.2 2.2A32 32 0 0 1 481 58v-5a37 37 0 0 0-19.2 5zm17.9-4.6V58q7.1 0 12.7 2.7l1.1-2.3 1-2.2A35 35 0 0 0 481 53zm13.8 3-1 2.2a30 30 0 0 1 10.4 8L506 67l1.9-1.6a35 35 0 0 0-12.2-9.2zm11.3 8.5-2 1.7q1.2 1.3.8 2l2.5.5 2.4.6a7 7 0 0 0-1.8-6.4zm1.3 4.2-2.5-.5q0 1-1.8 2.4l1.4 2 1.5 2a9 9 0 0 0 3.8-5.3zm-2.9 3.9-1.4-2q-1 .7-2.1.4l-.4 2.5-.5 2.4q3.2.6 5.9-1.3zm-4 .9.6-2.5q-1.4-.3-2.7-1.6l-1.8 1.8-1.8 1.7q2.2 2.3 5.2 3zm-3.9-2.3 1.8-1.7a23 23 0 0 0-17.4-7.5v5a18 18 0 0 1 13.8 5.9zM481 67v-2.5a24 24 0 0 0-12.8 3.5l1.3 2 1.3 2.2a19 19 0 0 1 10.2-2.7zm-11.5 3-1.3-2a23 23 0 0 0-8.8 9.3l2.3 1.1 2.2 1.2a18 18 0 0 1 6.8-7.4zm-7.8 8.4-2.3-1.1q-3 6-3 13.8h4.9q.1-6.9 2.6-11.5zm-2.9 12.7h-2.5q0 7.5 3.1 13.4l2.3-1.1 2.2-1.2a24 24 0 0 1-2.6-11.1zm2.9 12.3-2.2 1.2q3.2 6 8.9 9.5l1.3-2.2 1.3-2q-4.5-3-7.1-7.7zm8 8.5-1.3 2.2q5.8 3.4 13.2 3.4v-5q-6.1 0-10.6-2.7zm12 3.1v2.5q4.6 0 8.5-1.1l-.8-2.4-.7-2.4q-3 1-7 1zm7.7-1 .8 2.4q4-1.3 7-4l-1.5-1.9-1.6-1.9a17 17 0 0 1-5.5 3zm6.3-3.5 1.6 2q1.6-1.2 2.8-1.3l-.2-2.5-.1-2.4q-3 .2-5.7 2.3zm4.2-1.8.3 2.5q1.1 0 2 .6l1.6-1.9 1.6-2a7 7 0 0 0-5.8-1.6zm3.9 1.2-1.6 2q1.4 1.2 1.5 2.4l2.5-.3 2.5-.3a9 9 0 0 0-3.3-5.7zm2.4 4.1-2.5.3c0 .6 0 1.1-.8 1.9l1.8 1.8 1.7 1.7a7 7 0 0 0 2.3-6zm-1.5 4-1.7-2a30 30 0 0 1-21.4 8v4.9q14.7 0 24.8-9.2zm52.6 4.8L556 125zm-8-9L547 115zM548 35.6l-1.7-1.7zm9.2 0 1.8-1.7zm4.7 74.3 1.9-1.6zm15 5.2-1.8 1.6v.1zm-.5 9.2-1.5-1.9h-.1zM536.1 68l-1.7 1.9zm0-7.9-1.7-1.8zm38.3 0 1.7-1.8zm0 8 1.7 1.8zm-5.5 58v-2.6q-5.8 0-10.2-2.8l-1.4 2.1-1.3 2.1q5.9 3.6 12.9 3.6zm-11.6-3.3 1.4-2q-4.5-3-7.2-8l-2.2 1-2.2 1.2q3.2 6.2 8.9 10zm-8-9 2.2-1a24 24 0 0 1-2.7-11.6h-5q0 7.6 3.3 13.8zm-3-12.6h2.5v-61h-5v61zm0-61h2.5q0-2 1.1-2.9l-1.8-1.8-1.7-1.7a9 9 0 0 0-2.6 6.3zm1.8-4.7 1.8 1.8q1-1 2.8-1v-5.1q-3.7 0-6.3 2.6zm4.6-1.8v2.5q1.9 0 2.9 1.1l1.7-1.8 1.8-1.7a9 9 0 0 0-6.4-2.6zm4.6 1.8-1.7 1.8q1 1 1 2.8h5q0-3.7-2.5-6.3zm1.8 4.6h-2.5v61.1h5v-61zm0 61.1h-2.5q0 5.9 3.4 10.2l2-1.6 1.9-1.6q-2.3-2.6-2.3-7zm2.9 8.6-2 1.6a11 11 0 0 0 8.9 4.3v-5q-3 .1-5-2.5zm6.9 3.4v2.5h4.3v-5H569zm4.3 0v2.5q1.1 0 2 1l1.9-1.7 1.9-1.6a7 7 0 0 0-5.8-2.7zm3.9 1.8-1.9 1.7a4 4 0 0 1 1 3h5a9 9 0 0 0-2.3-6.4zm1.6 4.6h-2.5q0 1.7-1.2 2.7l1.5 2 1.6 1.9q3-2.6 3.1-6.6zm-2.2 4.6-1.6-1.8q-1.2 1-3.7 1.1v5q4 0 7-2.4zm-5.3 1.8v-2.5h-2.3v5h2.3zm-30.7-56.4V67q-1.9 0-2.7-.9l-1.7 1.8-1.7 1.9a9 9 0 0 0 6 2.2zM536 68l1.7-1.8q-.9-.7-.9-2h-5q0 3.4 2.5 5.7zm-1.7-3.8h2.5q0-1.6.9-2.3l-1.7-1.8-1.7-1.8a8 8 0 0 0-2.5 6zm1.7-4 1.7 1.7q.8-.8 2.7-.8v-5q-3.5-.1-6.1 2.2zm4.4-1.6V61H570v-5h-29.5zm29.5 0V61q1.9 0 2.7.8l1.7-1.8 1.7-1.8a9 9 0 0 0-6-2.2zm4.4 1.5-1.7 1.8q.8.7.8 2.3h5q0-3.5-2.4-6zm1.6 4.1h-2.5q0 1.3-.8 2l1.7 1.8 1.7 2a8 8 0 0 0 2.4-5.7zm-1.6 3.8-1.7-1.8q-.8.8-2.7.9v5q3.5 0 6-2.2zm-4.4 1.6V67h-29.5v5H570zm55 53.4-1.2 2.1zm-11-11.2-2.2 1.2zm-2.2-54L610 56zm9.3 0-1.8 1.7.1.1zm4.6 48-2.1 1.2zm7.3 7-1 2.2zm20.1 0-1-2.3h-.1zm7-6 2 1.4zm2.5-8.3V96a2.5 2.5 0 0 0-2.5 2.5zm8 0h2.6c0-1.4-1.1-2.5-2.5-2.5zm-3.9 14.3-2.1-1.3zM656.1 123l-1.2-2.2zm8.3 1.2-1.8 1.7.1.2zm0-66.5-1.7-1.9v.1zm9.5 66.5 1.7 1.8h.1zm-33 2.5v-2.5a31 31 0 0 1-14.8-3.5L625 123l-1.2 2.2a36 36 0 0 0 17 4zm-16-3.7 1.3-2.2a26 26 0 0 1-10-10.2l-2.2 1.2-2.2 1.2q4.5 8 12 12.1zm-11-11.2 2.3-1.2q-3.7-6.6-3.7-16.7h-5q0 11.1 4.3 19.1zM610 94h2.5V62.4h-5V94zm0-31.5h2.5q0-2 1-2.8l-1.7-1.8L610 56a9 9 0 0 0-2.5 6.4zm1.8-4.6 1.8 1.8a4 4 0 0 1 3-1.2v-5A9 9 0 0 0 610 56zm4.7-2v2.6q1.9 0 2.8 1.1l1.8-1.7 1.9-1.7a9 9 0 0 0-6.5-2.7zm4.6 2-1.7 1.8q1.2 1 1.2 2.8h5q0-3.8-2.8-6.4zm2 4.6h-2.5V94h5V62.4zm0 31.5h-2.5q0 7.6 3 13.1l2.1-1.2 2.2-1.2a21 21 0 0 1-2.3-10.7zm2.6 12-2.1 1.2q3 5 8.3 7.9l1.1-2.3 1.2-2.2a15 15 0 0 1-6.3-6zm7.3 6.8-1 2.3q5.2 2.4 11.4 2.4v-5q-5.3 0-9.3-2zm10.4 2.2v2.5q6 0 10.9-2.5l-1.2-2.2-1.1-2.2a19 19 0 0 1-8.6 1.9zm9.7-2.2 1.2 2.3q4.8-2.5 7.8-6.8l-2-1.4-2.1-1.4a16 16 0 0 1-6 5zm7-5.9 2 1.4q3-4.3 3-9.7h-5q0 3.9-2.1 7zm2.5-8.3v2.5h8v-5h-8zm8 0h-2.4q0 7.3-3.6 13l2.1 1.3 2.1 1.4q4.5-7.1 4.4-15.7zm-3.9 14.3-2.1-1.2a25 25 0 0 1-9.7 9.2l1.2 2.2 1.2 2.2a30 30 0 0 0 11.6-11zM656.1 123l-1.2-2.2q-6 3.4-14 3.4v5q9 0 16.4-4zm13 3v-2.5q-1.9 0-3-1l-1.7 1.7-1.7 1.9q2.7 2.4 6.4 2.4zm-4.7-1.8 1.8-1.7a4 4 0 0 1-1-3H660q0 3.8 2.5 6.4zm-1.8-4.7h2.5v-57h-5v57zm0-57h2.5q0-2.2 1-3l-1.7-1.8-1.8-1.8a9 9 0 0 0-2.5 6.5zm1.8-4.8 1.7 1.8q1.1-1 3-1.1v-5q-3.6 0-6.4 2.4zm4.7-1.8v2.5q2.2 0 3 1l1.8-1.7 1.7-1.8a9 9 0 0 0-6.5-2.5zm4.8 1.8-1.8 1.7q1 1 1 3h5.1q0-3.8-2.6-6.5zm1.8 4.7h-2.5v57.1h5v-57zm0 57.1h-2.5q0 2-1.2 3l1.9 1.7 1.8 1.7q2.5-2.7 2.5-6.4zm-1.8 4.7-1.8-1.7q-.8 1-3 1v5q3.8 0 6.5-2.5z"/>
  <path fill="#465fff" d="M753 126.5q-10.4 0-18.4-4.6a35 35 0 0 1-12.5-12.6q-4.5-8.1-4.5-18.2 0-10.4 4.5-18.4 4.4-8.1 12.3-12.6 7.8-4.5 17.9-4.6a32 32 0 0 1 25 11.5q2 2.1 1.3 4.2a7 7 0 0 1-2.8 3.9 5 5 0 0 1-4 .9 8 8 0 0 1-4-2.3 21 21 0 0 0-15.5-6.7 22 22 0 0 0-19.4 11.4 27 27 0 0 0-2.8 12.7q0 6.9 2.8 12.3a23 23 0 0 0 8.1 8.5q5.1 3.1 12 3.1 4.4 0 7.7-1 3.4-1.2 6.3-3.5a7 7 0 0 1 4.2-1.8q2.2-.2 3.9 1.2a6 6 0 0 1 2.4 4.1q.2 2.1-1.5 4a33 33 0 0 1-23 8.5m78.3-.5q-5.5 0-10-3-4.3-3-6.7-8.4a30 30 0 0 1-2.5-12.3V32.5q0-3 1.8-4.6a6 6 0 0 1 4.6-1.8q2.8 0 4.6 1.8a6 6 0 0 1 1.8 4.6v69.8q0 4.8 1.8 7.9 1.8 3 4.6 3h3.2q2.5 0 4.1 1.8a7 7 0 0 1 1.7 4.6q0 2.9-2.5 4.6a10 10 0 0 1-6.2 1.8zm66.3.5q-10.4 0-18.3-4.4a34 34 0 0 1-17-31q0-10.5 4.4-18.4 4.6-8.1 12.6-12.6t18.3-4.6 18.1 4.6a32 32 0 0 1 12.5 12.6 36 36 0 0 1 4.6 18.4q0 10.3-4.5 18.4a33 33 0 0 1-30.7 17m0-11.5q6.6 0 11.7-3 5.2-3.2 8-8.5 3-5.4 3-12.4t-3-12.4a21 21 0 0 0-8-8.6q-5.1-3-11.7-3-6.7 0-11.8 3t-8 8.6q-3 5.4-3 12.4t3 12.4a22 22 0 0 0 19.8 11.5m100.7 11.7q-9 0-15.9-3.7a28 28 0 0 1-11-11.2 37 37 0 0 1-4-17.9V62.4q0-2.8 1.8-4.6 2-2 4.8-2a6 6 0 0 1 4.6 2 6 6 0 0 1 1.9 4.6V94q0 7.1 2.7 12 2.7 4.5 7.3 6.8a24 24 0 0 0 20 0 18 18 0 0 0 7-5.9q2.5-3.6 2.5-8.3h8.1q0 7.9-4 14.3a28 28 0 0 1-10.6 10.2 31 31 0 0 1-15.2 3.7m28.3-.7q-3 0-4.8-1.8a7 7 0 0 1-1.8-4.7v-57q0-3 1.8-4.8a7 7 0 0 1 4.8-1.8q3 0 4.7 1.8a6 6 0 0 1 1.8 4.7v57.1q0 2.9-1.8 4.7a6 6 0 0 1-4.7 1.8m77.9.4q-10 0-18-4.6a36 36 0 0 1-12.7-12.8A36 36 0 0 1 1069 91q0-10.2 4.3-18a33 33 0 0 1 11.7-12.8q7.5-4.7 16.8-4.7 7.5 0 14 3.2 6.3 3 10.7 8.4V32.6q0-3 1.8-4.7a7 7 0 0 1 4.7-1.8q3 0 4.8 1.8a6 6 0 0 1 1.8 4.7V91a35 35 0 0 1-35.2 35.5m0-11.5q6.5 0 11.6-3 5.1-3.2 8-8.8 3-5.4 3-12.2 0-7-3-12.3a22 22 0 0 0-19.6-11.7 23 23 0 0 0-22.8 24q0 6.8 3 12.2 3 5.5 8.1 8.7 5.3 3.1 11.7 3.1"/>
  <path stroke="#465fff" stroke-linejoin="round" stroke-width="5" d="M753 126.5q-10.4 0-18.4-4.6a35 35 0 0 1-12.5-12.6q-4.5-8.1-4.5-18.2 0-10.4 4.5-18.4 4.4-8.1 12.3-12.6 7.8-4.5 17.9-4.6a32 32 0 0 1 25 11.5q2 2.1 1.3 4.2a7 7 0 0 1-2.8 3.9 5 5 0 0 1-4 .9 8 8 0 0 1-4-2.3 21 21 0 0 0-15.5-6.7 22 22 0 0 0-19.4 11.4 27 27 0 0 0-2.8 12.7q0 6.9 2.8 12.3a23 23 0 0 0 8.1 8.5q5.1 3.1 12 3.1 4.4 0 7.7-1 3.4-1.2 6.3-3.5a7 7 0 0 1 4.2-1.8q2.2-.2 3.9 1.2a6 6 0 0 1 2.4 4.1q.2 2.1-1.5 4a33 33 0 0 1-23 8.5Zm78.3-.5q-5.5 0-10-3-4.3-3-6.7-8.4a30 30 0 0 1-2.5-12.3V32.5q0-3 1.8-4.6a6 6 0 0 1 4.6-1.8q2.8 0 4.6 1.8a6 6 0 0 1 1.8 4.6v69.8q0 4.8 1.8 7.9 1.8 3 4.6 3h3.2q2.5 0 4.1 1.8a7 7 0 0 1 1.7 4.6q0 2.9-2.5 4.6a10 10 0 0 1-6.2 1.8zm66.3.5q-10.4 0-18.3-4.4a34 34 0 0 1-17-31q0-10.5 4.4-18.4 4.6-8.1 12.6-12.6t18.3-4.6 18.1 4.6a32 32 0 0 1 12.5 12.6 36 36 0 0 1 4.6 18.4q0 10.3-4.5 18.4a33 33 0 0 1-30.7 17Zm0-11.5q6.6 0 11.7-3 5.2-3.2 8-8.5 3-5.4 3-12.4t-3-12.4a21 21 0 0 0-8-8.6q-5.1-3-11.7-3-6.7 0-11.8 3t-8 8.6q-3 5.4-3 12.4t3 12.4a22 22 0 0 0 19.8 11.5Zm100.7 11.7q-9 0-15.9-3.7a28 28 0 0 1-11-11.2 37 37 0 0 1-4-17.9V62.4q0-2.8 1.8-4.6 2-2 4.8-2a6 6 0 0 1 4.6 2 6 6 0 0 1 1.9 4.6V94q0 7.1 2.7 12 2.7 4.5 7.3 6.8a24 24 0 0 0 20 0 18 18 0 0 0 7-5.9q2.5-3.6 2.5-8.3h8.1q0 7.9-4 14.3a28 28 0 0 1-10.6 10.2 31 31 0 0 1-15.2 3.7Zm28.3-.7q-3 0-4.8-1.8a7 7 0 0 1-1.8-4.7v-57q0-3 1.8-4.8a7 7 0 0 1 4.8-1.8q3 0 4.7 1.8a6 6 0 0 1 1.8 4.7v57.1q0 2.9-1.8 4.7a6 6 0 0 1-4.7 1.8Zm77.9.5q-10 0-18-4.6a36 36 0 0 1-12.7-12.8A36 36 0 0 1 1069 91q0-10.2 4.3-18a33 33 0 0 1 11.7-12.8q7.5-4.7 16.8-4.7 7.5 0 14 3.2 6.3 3 10.7 8.4V32.6q0-3 1.8-4.7a7 7 0 0 1 4.7-1.8q3 0 4.8 1.8a6 6 0 0 1 1.8 4.7V91a35 35 0 0 1-35.2 35.5Zm0-11.5q6.5 0 11.6-3 5.1-3.2 8-8.8 3-5.4 3-12.2 0-7-3-12.3a22 22 0 0 0-19.6-11.7 23 23 0 0 0-22.8 24q0 6.8 3 12.2 3 5.5 8.1 8.7 5.3 3.1 11.7 3.1Z"/>
  <path fill="#0f1138" d="M392.5 191q-.6 0-1-.4t-.5-1.1v-20.3q0-.7.4-1.2t1.1-.4h13.6q.7 0 1.1.4t.4 1-.4 1-1.1.5h-12v7.3h8.6q.7 0 1.1.4.4.3.4 1t-.4 1-1 .4H394v8.9q0 .7-.5 1-.4.6-1 .5m23.6 0q-.9 0-1.3-.7t-.1-1.5l8.4-20.2q.5-1 1.5-1t1.5 1l8.4 20.2q.4.9 0 1.6-.6.6-1.4.6-.5 0-.8-.2-.5-.3-.6-.7l-7.5-18.5h.9l-7.6 18.5q-.1.4-.6.7zm1.6-5.1 1.2-2.6h11.7l1.2 2.6zm39.3 5.4q-2.4 0-4.5-.9a12 12 0 0 1-6.2-6.4 13 13 0 0 1 2.5-13.2A12 12 0 0 1 461 168a11 11 0 0 1 3.7 2.4l.2.4v.4q0 .6-.4 1-.4.3-1 .4-.5 0-1-.4a9 9 0 0 0-2.4-1.5 8 8 0 0 0-3-.5q-2 0-3.4.7a9 9 0 0 0-5.3 8.5 10 10 0 0 0 2.5 6.5 8 8 0 0 0 9 2.2q1.4-.6 2.6-1.5.6-.4 1-.3.7 0 1 .4.3.3.4 1l-.2.6q0 .3-.3.5a12 12 0 0 1-7.4 2.6m28.8-.3q-.7 0-1.1-.4t-.5-1.1v-21.9h3.1v21.9q0 .7-.4 1-.5.6-1.1.5m-8-20.5q-.7 0-1.1-.4t-.4-1a1.4 1.4 0 0 1 1.4-1.5h16q.7 0 1.1.4t.4 1-.4 1-1 .5zm39.7 21q-3 0-5.1-1a8 8 0 0 1-4.7-7.3v-14q0-.7.4-1.2t1.1-.4 1.1.4q.5.4.5 1.2v14q0 1.6.8 2.8a6 6 0 0 0 2.4 2q1.5.7 3.5.7 1.9 0 3.3-.7 1.5-.7 2.3-2a5 5 0 0 0 .8-2.8v-14q0-.7.5-1.2t1.1-.4 1.1.4.4 1.2v14q0 2.4-1.2 4.3t-3.4 3q-2 1-5 1m26-.5q-.6 0-1-.4t-.5-1.1v-20.3q0-.7.5-1.2t1-.4h5.5q2.2 0 4 1t2.7 2.5 1 3.9a7 7 0 0 1-3.7 6.1q-1.8.9-4 .9H545v7.5q0 .7-.4 1-.5.6-1.1.5m12.5 0-.8-.2q-.3-.1-.5-.5l-5.4-8.7 3-.9 5 8q.4.7 0 1.6-.3.7-1.3.7m-10.9-11.9h3.9q1.4 0 2.4-.5t1.7-1.5a5 5 0 0 0 0-4.5q-.6-1-1.7-1.6a5 5 0 0 0-2.4-.5h-4zm24 12q-.9 0-1.3-.8-.5-.7-.1-1.5l8.4-20.2q.4-1 1.5-1 1 0 1.4 1l8.5 20.2q.3.9-.1 1.6-.4.6-1.3.6l-.9-.2-.6-.7-7.4-18.5h.8l-7.5 18.5-.6.7zm1.5-5.2 1.2-2.6h11.8l1.2 2.6zm39.4 5.4q-2.5 0-4.6-.9a12 12 0 0 1-6.1-6.4 13 13 0 0 1 2.4-13.2A12 12 0 0 1 614 168a11 11 0 0 1 3.8 2.4l.1.4.1.4q0 .6-.4 1l-1 .4q-.6 0-1-.4a9 9 0 0 0-2.4-1.5 8 8 0 0 0-3.1-.5q-1.8 0-3.3.7a9 9 0 0 0-5.3 8.5 10 10 0 0 0 2.5 6.5 8 8 0 0 0 9 2.2q1.4-.6 2.6-1.5.6-.4 1-.3.6 0 1 .4.3.3.3 1l-.1.6q0 .3-.4.5a12 12 0 0 1-7.3 2.6m32.6 0a13 13 0 0 1-4.8-.8q-2.2-1-3.8-2.5-1.5-1.7-2.4-3.8-.9-2.2-.9-4.9t.9-4.8q.9-2.3 2.4-3.8 1.5-1.6 3.8-2.5t4.8-.9q2.7 0 4.8.9a11 11 0 0 1 6.3 6.3q.9 2.1.8 4.8t-.8 4.9-2.5 3.8a11 11 0 0 1-8.6 3.3m0-2.8a9 9 0 0 0 6.4-2.6q1.3-1.4 1.9-3t.6-3.6-.6-3.6a8 8 0 0 0-4.7-4.9 9 9 0 0 0-3.6-.7q-2 0-3.6.7a8 8 0 0 0-4.6 4.9 10 10 0 0 0-.7 3.6 10 10 0 0 0 2.5 6.6 9 9 0 0 0 2.8 2q1.6.6 3.6.6m.2-23.5q-.7 0-1.2-.4t-.4-1.1.4-1l3-3q.4-.4 1-.4t1.1.4.4 1.1v.6l-.4.5-2.9 2.9q-.4.4-1 .4m27.2 26q-.7 0-1.2-.4t-.4-1.1v-20.3q0-.7.4-1.2t1.2-.4 1.2.6l13 17.4v-16.4q0-.7.5-1.2t1.1-.4 1.1.4.4 1.2v20.3q0 .7-.4 1-.4.6-1.1.5h-.7l-.5-.5-13-17.4v16.4q0 .7-.5 1-.5.6-1.1.5m51.7 0q-.7 0-1.1-.4t-.5-1.1v-20.3q0-.7.5-1.2t1-.4h13.6q.8 0 1.1.4.5.4.5 1t-.4 1q-.5.5-1.2.5h-12v7.3h8.6q.8 0 1.2.4.4.3.4 1t-.4 1-1.1.4h-8.7v7.5h12q.8 0 1.1.4.5.4.5 1 0 .8-.4 1.1t-1.2.4zm30 0q-.7 0-1.2-.4t-.4-1.1v-20.3q0-.7.5-1.2t1-.4q.8 0 1.2.4t.4 1.2V188h10.9q.6 0 1 .5t.5 1q0 .8-.4 1.2t-1.1.4zm28.2 0q-.6 0-1-.4-.6-.5-.5-1.1v-20.3q0-.7.4-1.2t1.1-.4h13.6q.7 0 1.1.4t.4 1-.4 1-1.1.5h-12v7.3h8.6q.7 0 1.1.4.4.3.4 1t-.4 1-1.1.4h-8.6v7.5h12q.7 0 1.1.4t.4 1q0 .8-.4 1.1t-1.1.4zm39 .3q-2.4 0-4.6-.9a12 12 0 0 1-6.1-6.4 13 13 0 0 1 2.4-13.2 12 12 0 0 1 12.2-2.9 11 11 0 0 1 3.8 2.4l.1.4.1.4q0 .6-.4 1l-1 .4q-.6 0-1-.4a9 9 0 0 0-2.4-1.5 8 8 0 0 0-3.1-.5q-1.8 0-3.4.7a9 9 0 0 0-5.2 8.5 10 10 0 0 0 2.5 6.5 8 8 0 0 0 9 2.2q1.4-.6 2.6-1.5.6-.4 1-.3.6 0 1 .4.3.3.3 1l-.1.6q0 .3-.4.5a12 12 0 0 1-7.3 2.6m28.7-.3q-.6 0-1-.4t-.5-1.1v-21.9h3v21.9q.1.7-.4 1-.4.6-1 .5m-8-20.5q-.6 0-1-.4t-.5-1a1.4 1.4 0 0 1 1.5-1.5h16q.7 0 1 .4.5.4.5 1t-.4 1-1 .5zM871 191q-.6 0-1.1-.4t-.5-1.1v-20.3q0-.7.5-1.2t1-.4h5.5q2.2 0 4 1t2.7 2.5 1 3.9a7 7 0 0 1-3.7 6.1q-1.8.9-4 .9h-3.8v7.5q0 .7-.5 1-.4.6-1.1.5m12.4 0q-.4 0-.7-.2-.4-.1-.6-.5l-5.4-8.7 3-.9 5 8q.5.7 0 1.6-.3.7-1.3.7m-10.8-11.9h3.8q1.4 0 2.4-.5t1.7-1.5a5 5 0 0 0 0-4.5q-.6-1-1.7-1.6a5 5 0 0 0-2.4-.5h-3.8zm35.6 12.2a13 13 0 0 1-4.8-.8q-2.2-1-3.8-2.5-1.5-1.7-2.4-3.8-.9-2.2-.9-4.9t.9-4.8q.9-2.3 2.4-3.8 1.5-1.6 3.8-2.5 2.1-.9 4.8-.9t4.8.9a11 11 0 0 1 6.3 6.3q.8 2.1.8 4.8t-.8 4.9-2.5 3.8a11 11 0 0 1-8.6 3.3m0-2.8a9 9 0 0 0 6.4-2.6q1.2-1.4 1.9-3t.6-3.6-.6-3.6a8 8 0 0 0-4.7-4.9 9 9 0 0 0-3.6-.7q-2 0-3.6.7a8 8 0 0 0-4.6 4.9 10 10 0 0 0-.7 3.6 10 10 0 0 0 2.5 6.6 9 9 0 0 0 2.8 2q1.6.6 3.6.6m.1-23.5q-.6 0-1-.4t-.5-1.1.4-1l3-3q.4-.4 1-.4t1.1.4.4 1.1v.6l-.4.5-3 2.9q-.3.4-1 .4m27.2 26q-.6 0-1-.4t-.5-1.1v-20.3q0-.7.4-1.2t1.1-.4 1.2.6l13.1 17.4v-16.4q0-.7.5-1.2t1-.4q.8 0 1.2.4t.4 1.2v20.3q0 .7-.4 1-.5.6-1.1.5h-.7l-.5-.5-13-17.4v16.4q0 .7-.5 1-.5.6-1.2.5m34 0q-.7 0-1.1-.4t-.5-1.1v-20.3q0-.7.5-1.2t1-.4q.8 0 1.2.4t.4 1.2v20.3q0 .7-.4 1-.5.6-1.1.5m27 .3q-2.4 0-4.5-.9a12 12 0 0 1-6.2-6.4 13 13 0 0 1 2.5-13.2 12 12 0 0 1 12.2-2.9 11 11 0 0 1 3.7 2.4l.2.4v.4q.1.6-.4 1-.4.3-1 .4-.5 0-1-.4a9 9 0 0 0-2.4-1.5 8 8 0 0 0-3-.5q-1.9 0-3.4.7a9 9 0 0 0-5.2 8.5 10 10 0 0 0 2.4 6.5 8 8 0 0 0 9 2.2q1.4-.6 2.6-1.5.6-.4 1.1-.3.6 0 .9.4.4.3.4 1l-.2.6q0 .3-.3.5a12 12 0 0 1-7.4 2.6m21-.3q-.9 0-1.4-.7t0-1.5l8.4-20.2q.5-1 1.4-1 1.2 0 1.5 1l8.5 20.2q.4.9-.2 1.6-.4.6-1.2.6l-1-.2-.5-.7-7.4-18.5h.8L1019 190l-.7.7zm1.5-5.1 1.2-2.6h11.8l1.2 2.6z"/>
  <path fill="#0f1138" d="m391.4 168 .7.8zm15.8 0-.7.7zm0 2 .7.8zm-13.1.5v-1a1 1 0 0 0-1 1zm0 7.3h-1q0 .9 1 1zm9.7.4-.7.7zm0 2 .7.8zm-9.7.4v-1a1 1 0 0 0-1 1zm-.5 10-.7-.7zm-1 .4v-1l-.5-.1-.7.7-.7.7q.8.7 1.8.7zm-1.2-.4.7-.7-.1-.4h-2q0 1 .7 1.8zm-.4-1.1h1v-20.3h-2v20.3zm0-20.3h1l.1-.4-.7-.8-.7-.7q-.7.8-.7 1.9zm.4-1.2.7.8.4-.2v-2q-1 0-1.8.7zm1.1-.4v1h13.6v-2h-13.6zm13.6 0v1l.4.1.7-.7.7-.7q-.7-.7-1.8-.7zm1.1.4-.7.8.1.3h2q0-1-.7-1.8zm.4 1h-1v.4l.6.7.7.7q.7-.6.7-1.7zm-.4 1-.7-.6h-.4v2q1 0 1.8-.6zm-1.1.5v-1h-12v2h12zm-12 0h-1v7.3h2v-7.3zm0 7.3v1h8.6v-2h-8.6zm8.6 0v1l.4.1.7-.7.7-.7q-.7-.7-1.8-.7zm1.1.4-.7.7.1.3h2q0-1-.7-1.7zm.4 1h-1v.4l.6.7.7.7q.7-.7.7-1.8zm-.4 1-.7-.7-.4.1v2q1 0 1.8-.6zm-1 .4v-1H394v2h8.6zm-8.7 0h-1v8.9h2v-8.9zm0 8.9h-1q0 .3-.2.4l.7.7.8.7q.7-.7.7-1.8zm-.5 1-.7-.6-.4.1v2q1.1 0 1.9-.7zm21.2-.2-.9.5zm-.1-1.5 1 .4zm8.4-20.2-.9-.3zm3 0-1 .4zm8.4 20.2 1-.3zm0 1.6-1-.6zm-2.2.4-.6.8zm-.6-.7 1-.4zm-7.5-18.5v-1a1 1 0 0 0-.9 1.4zm.9 0 1 .4a1 1 0 0 0-1-1.4zm-7.6 18.5 1 .4zm-.6.7-.5-.9zm.8-5-1-.4a1 1 0 0 0 1 1.5zm1.2-2.5v-1a1 1 0 0 0-1 .6zm11.7 0 1-.4a1 1 0 0 0-1-.6zm1.2 2.6v1a1 1 0 0 0 1-1.5zm-15.7 5.1v-1l-.5-.2-.8.5-.9.5q.8 1.2 2.2 1.2zm-1.3-.7.8-.5v-.6l-.9-.4-1-.4q-.4 1.3.2 2.4zm-.1-1.5 1 .4L424 169l-1-.4-.9-.3-8.4 20zm8.4-20.2 1 .4q0-.3.2-.3l.3-.1v-2q-.7 0-1.5.4-.6.6-.9 1.3zm1.5-1v1h.3l.2.4 1-.4 1-.3q-.4-.8-1-1.3-.8-.4-1.5-.4zm1.5 1-1 .4 8.5 20.2 1-.4.9-.3-8.5-20.2zm8.4 20.2-.9.4v.6l.8.6.9.5q.6-1.1.2-2.4zm0 1.6-1-.6q.1.2-.4.2v2q1.4 0 2.2-1zm-1.4.6v-1h-.3l-.5.8-.5.9q.6.3 1.3.3zm-.8-.2.5-.8-.2-.3-1 .4-.8.3q.2.8.9 1.2zm-.6-.7 1-.4-7.5-18.5-1 .4-.9.4 7.5 18.4zm-7.5-18.5v1h.9v-2h-.9zm.9 0-1-.4-7.5 18.5 1 .4.8.3L426 172zm-7.6 18.5-.9-.4-.2.2.5.9.5.9q.7-.4 1-1.2zm-.6.7-.5-.9-.3.1v2q.8 0 1.3-.4zm.8-5 .9.5 1.2-2.6-1-.4-.8-.4-1.2 2.5zm1.2-2.5v1h11.7v-2H419zm11.7 0-.9.4 1.2 2.6 1-.4.8-.5-1.2-2.5zm1.2 2.6v-1h-14.1v2h14.1zm20.7 4.5-.4 1zm-3.7-2.5-.8.7zm-2.5-3.9-1 .4zm0-9.4-1-.4zm2.5-3.8-.7-.7zm3.7-2.6-.4-.9zm8.5-.3-.4 1zm3.3 2-.6.8zm.4.4-.9.5.1.1zm.2.4-1 .1v.2zm-.4 1.4.7.7zm-1 .4.1 1zm-1-.4-.7.8zm-2.4-1.5-.4 1zm-9.2 2.2-.7-.7zm-1.8 3 1 .3zm0 7.1-1 .4zm1.8 3-.7.6zm2.8 1.9-.4.9zm6.2.2.4 1v-.1zm2.6-1.5-.5-.8zm1-.3v1zm1 .4-.7.7zm.2 1.6 1 .4zm-.3.5.6.8zm-3.5 2-.3-1zm-3.9.6v-1q-2.3 0-4.1-.8l-.4 1-.4.9q2.3 1 5 1zm-4.5-.9.4-.9q-2-.8-3.4-2.3l-.7.7-.7.7q1.6 1.7 4 2.7zm-3.7-2.5.7-.7q-1.4-1.5-2.3-3.5l-.9.3-1 .4q1 2.4 2.7 4.2zm-2.5-3.9 1-.3q-.9-2-.9-4.4h-2q0 2.7 1 5.1zm-.9-4.7h1q0-2.4.8-4.3l-.9-.4-1-.4q-.8 2.4-.9 5.1zm1-4.7.8.4a11 11 0 0 1 2.3-3.5l-.7-.7-.7-.7a13 13 0 0 0-2.7 4.1zm2.4-3.8.7.7q1.4-1.5 3.4-2.4l-.4-.9-.4-.9q-2.4 1-4 2.8zm3.7-2.6.4 1q1.8-.9 4.1-.9v-2q-2.6 0-5 1zm4.5-.9v1q2.3 0 3.6.5l.4-.9.3-1q-1.8-.6-4.3-.6zm4 .6-.4 1q1.5.5 3.1 1.8l.6-.8.7-.8q-1.8-1.5-3.7-2.1zm3.3 2-.6.8h.1l.9-.4.9-.5-.7-.7zm.4.4-.8.6v-.1l1-.1 1-.2q0-.5-.4-.9zm.2.4-1 .3v.1h2v-.8zm0 .4h-1v.2l.6.8.7.7q.7-.6.7-1.7zm-.4 1-.7-.8-.3.2v1l.2 1q.8 0 1.5-.7zm-1 .4v-1l-.4-.2-.6.8-.7.8q.8.6 1.8.6zm-1-.4.6-.8a10 10 0 0 0-2.6-1.6l-.4 1-.3.9q1 .3 2 1.3zm-2.4-1.5.4-.9q-1.4-.6-3.5-.6v2a7 7 0 0 1 2.7.4zm-3-.5v-1q-2.1 0-3.8.8l.4 1 .4.8q1.4-.6 3-.6zm-3.4.7-.4-.9a10 10 0 0 0-3 2.2l.6.7.8.7a8 8 0 0 1 2.4-1.8zm-2.8 2-.7-.7q-1.3 1.4-2 3.3l.9.4 1 .3q.5-1.5 1.6-2.6zm-1.8 3-1-.4q-.6 1.8-.7 3.9h2q0-1.7.6-3.2zm-.7 3.5h-1q0 2 .8 4l.9-.4 1-.4q-.7-1.4-.7-3.2zm.7 3.6-1 .4q.8 1.8 2.1 3.2l.7-.7.8-.7a8 8 0 0 1-1.7-2.6zm1.8 3-.7.6q1.4 1.5 3 2.2l.5-1 .4-.8a8 8 0 0 1-2.4-1.8zm2.8 1.9-.4.9q1.8.8 3.7.8v-2q-1.5 0-2.9-.6zm3.3.7v1a9 9 0 0 0 3.3-.6l-.4-1-.4-.9a7 7 0 0 1-2.5.5zm2.9-.5.4.9q1.5-.7 2.8-1.6l-.6-.8-.6-.8q-1 .9-2.4 1.3zm2.6-1.5.6.8.4-.1v-1l.2-1q-1-.1-1.7.5zm1-.3v1h.3l.7-.6.7-.7q-.6-.6-1.6-.7zm1 .4-.7.7v.3h2q0-1-.6-1.7zm.4 1h-1l-.1.2 1 .4.9.4.2-1zm-.2.6-.9-.4-.1.2.7.7.7.7.5-.8zm-.3.5-.6-.8q-1.5 1.2-3.2 1.8l.3 1 .3 1a13 13 0 0 0 3.8-2.2zm-3.5 2-.3-1q-1.7.6-3.6.6v2q2.3 0 4.2-.7zm23.8-.1-.7.7zm-.5-23v-1a1 1 0 0 0-1 1zm3.1 0h1q0-1-1-1zm-.4 23 .7.7zM476.7 170l-.7.7zm0-2-.7-.8zm18.1 0-.7.6zm0 2 .7.7zm-9 21v-1l-.4-.2-.7.7-.7.7q.7.7 1.8.7zm-1.1-.5.7-.7-.2-.4h-2q0 1 .8 1.8zm-.5-1.1h1v-21.9h-2v21.9zm0-21.9v1h3.1v-2h-3zm3.1 0h-1v21.9h2v-21.9zm0 21.9h-1l-.1.4.7.7.7.7q.7-.7.7-1.8zm-.4 1-.7-.6-.4.1v2q1 0 1.8-.7zm-9.2-20v-1l-.3-.1-.7.7-.7.7q.7.7 1.7.7zm-1-.4.7-.7-.1-.4h-2q0 1 .6 1.8zm-.4-1h1v-.4l-.6-.7-.7-.7q-.7.7-.7 1.7zm.4-1 .7.6.3-.1v-2q-1 0-1.7.7zm1-.5v1h16v-2h-16zm16 0v1l.4.1.7-.7.7-.7q-.6-.7-1.7-.7zm1.1.4-.7.8.1.2h2q0-1-.7-1.7zm.4 1h-1l-.1.4.7.7.7.7q.7-.7.7-1.8zm-.4 1-.7-.6h-.3v2q1 0 1.7-.6zm-1 .5v-1h-16v2h16zm18.6 20-.5.9zm-3.5-3-.8.5zm-.8-19.5.7.8zm2.2 0-.7.7zm1.3 18-.8.6zm2.4 2-.4.9zm6.8 0 .4.9zm2.3-2-.8-.5zm1.3-18 .7.8zm2.2 0-.7.7zm-.8 19.5-.8-.6zm-3.4 3 .5.9zm-5 1v-1q-2.6 0-4.6-1l-.4 1-.4.9q2.4 1 5.5 1.1zm-5-1 .4-1a8 8 0 0 1-3-2.6l-.9.6-.8.5q1.4 2.2 3.8 3.4zm-3.5-3 .8-.6q-1-1.6-1-3.7h-2q0 2.7 1.4 4.8zm-1.2-4.3h1v-14h-2v14zm0-14h1l.1-.4-.7-.8-.7-.7q-.7.8-.7 1.9zm.4-1.2.7.8.4-.2v-2q-1 0-1.8.7zm1.1-.4v1l.4.1.7-.7.8-.6q-.8-.9-1.9-.8zm1.1.4-.6.8.1.4h2q0-1.1-.8-1.9zm.5 1.2h-1v14h2v-14zm0 14h-1a6 6 0 0 0 1 3.4l.8-.6.9-.5a4 4 0 0 1-.7-2.3zm.8 2.8-.8.6a7 7 0 0 0 2.8 2.3l.4-.9.4-.9a5 5 0 0 1-2-1.6zm2.4 2-.4 1q1.8.6 3.9.7v-2q-1.8 0-3-.6zm3.5.7v1q2 0 3.7-.8l-.4-.9-.4-.9q-1.2.6-3 .6zm3.3-.7.5.9q1.6-.9 2.6-2.3l-.8-.6-.8-.5q-.6 1-2 1.6zm2.3-2 .8.6a6 6 0 0 0 1-3.4h-2a4 4 0 0 1-.6 2.3zm.8-2.8h1v-14h-2v14zm0-14h1q0-.4.2-.4l-.7-.8-.7-.7q-.8.8-.8 1.9zm.5-1.2.7.8.4-.2v-2q-1 0-1.8.7zm1.1-.4v1l.4.1.7-.7.7-.6q-.7-.9-1.8-.8zm1.1.4-.7.8.1.4h2q0-1.1-.7-1.9zm.4 1.2h-1v14h2v-14zm0 14h-1q0 2.2-1 3.7l.8.6.8.5q1.5-2.1 1.4-4.8zm-1.2 4.3-.8-.5q-1 1.6-3 2.6l.4.9.5.9a9 9 0 0 0 3.7-3.4zm-3.4 3-.4-1q-2 1-4.5 1v2q3 0 5.4-1.1zm20 0-.6.8zm0-22.5.8.8zm10.6.6-.5.8zm2.7 2.5-.9.5zm0 7.5-.9-.5zM553 181l.4.9zm-7.9.9v-1a1 1 0 0 0-1 1zm-.4 8.6-.7-.7zm10.5.2-.4 1zm-.5-.5.8-.5zm-5.4-8.7-.3-1a1 1 0 0 0-.6 1.5zm3-.9.9-.5a1 1 0 0 0-1.2-.5zm5 8 .8-.6zm0 1.6 1 .4zM545.2 179h-1q.1 1 1 1zm6.3-.5.4 1v-.1zm1.7-1.5.8.6zm-1.7-6-.5.8zm-6.3-.6v-1a1 1 0 0 0-1 1zm-1.5 20.5v-1l-.4-.1-.7.7-.7.7q.7.7 1.8.7zm-1.1-.4.7-.7-.2-.4h-2q0 1 .8 1.8zm-.5-1.1h1v-20.3h-2v20.3zm0-20.3h1q0-.4.2-.4l-.7-.8-.7-.7q-.8.8-.8 1.9zm.5-1.2.7.8.4-.2v-2q-1 0-1.8.7zm1-.4v1h5.5v-2h-5.4zm5.5 0v1q2 0 3.5.8l.5-.8.5-1q-2.1-1-4.5-1zm4 1-.5.8q1.5.9 2.3 2.2l.9-.5.8-.5a8 8 0 0 0-3-3zm2.7 2.5-.9.6q.9 1.4.9 3.3h2q0-2.4-1.2-4.4zm1 3.9h-1q0 1.8-.9 3l.9.6.8.5a8 8 0 0 0 1.2-4.1zm-1 3.6-.9-.5q-.8 1.4-2.3 2.1l.5.9.4.9a8 8 0 0 0 3.1-2.9zm-2.7 2.5-.5-.9q-1.5.8-3.5.8v2q2.4 0 4.4-1zm-4 .9v-1H545v2h3.9zm-3.9 0h-1v7.5h2V182zm0 7.5h-1l-.1.4.7.7.7.7q.7-.7.7-1.8zm-.4 1-.7-.6-.4.1v2q1 0 1.8-.7zm11.3.5v-1h-.3l-.5.8-.4 1 1.2.2zm-.8-.2.5-.8-.2-.2-.8.5-.9.5 1 1zm-.5-.5.8-.5-5.4-8.7-.8.5-.9.5 5.4 8.7zm-5.4-8.7.3 1 3-1-.3-.9-.3-1-3 1zm3-.9-.8.5 4.9 8 .8-.6.9-.5-5-8zm5 8-1 .5q.4.5.2.6l.9.5.9.4q.6-1.4-.2-2.6zm0 1.6-.8-.5-.1.2h-.4v2q.8 0 1.3-.3t1-1zM545.2 179v1h3.9v-2H545zm3.9 0v1q1.5 0 2.8-.6l-.4-.9-.4-.9q-.9.4-2 .4zm2.4-.5.5.9q1.2-.6 2-1.8l-.8-.6-.9-.5q-.5.7-1.2 1.1zm1.7-1.5.8.6a5 5 0 0 0 .8-2.7h-2a3 3 0 0 1-.5 1.6zm.6-2.1h1q0-1.5-.8-2.9l-.8.5-.9.5q.5.9.5 1.9zm-.6-2.4.8-.5a5 5 0 0 0-2-2l-.5 1-.5.8q.9.4 1.3 1.2zm-1.7-1.6.5-.8a6 6 0 0 0-3-.7v2a4 4 0 0 1 2 .4zm-2.4-.5v-1H545v2h3.9zm-3.9 0h-1v8.6h2v-8.6zm22.7 19.8-.9.5zm-.1-1.5.9.4zm8.4-20.2-1-.3zm3 0-1 .4zm8.4 20.2 1-.3zm-.1 1.6-.9-.6zm-2.2.4-.6.8h.1zm-.6-.7 1-.4zm-7.4-18.5v-1a1 1 0 0 0-1 1.4zm.8 0 1 .4a1 1 0 0 0-1-1.4zm-7.5 18.5.9.4zm-.6.7-.5-.9zm.7-5-.9-.4a1 1 0 0 0 1 1.5zm1.2-2.5v-1a1 1 0 0 0-.9.6zm11.8 0 .9-.4a1 1 0 0 0-1-.6zm1.2 2.6v1a1 1 0 0 0 .9-1.5zM569 191v-1q-.3 0-.4-.2l-.8.5-.9.5q.8 1.2 2.1 1.2zm-1.2-.7.8-.5v-.6l-1-.4-.9-.4q-.5 1.3.2 2.4zm-.1-1.5.9.4L577 169l-1-.4-.8-.3-8.5 20zm8.4-20.2 1 .4q0-.3.2-.3l.3-.1v-2q-.8 0-1.5.4l-1 1.3zm1.5-1v1h.3l.2.4 1-.4.9-.3q-.3-.8-1-1.3t-1.4-.4zm1.4 1-.9.4 8.5 20.2.9-.4 1-.3-8.5-20.2zm8.5 20.2-1 .4q.2.5 0 .6l.9.6.8.5q.7-1.1.2-2.4zm-.1 1.6-.9-.6q0 .2-.4.2v2q1.4 0 2.1-1zm-1.3.6v-1h-.4l-.5.8-.5.9q.6.3 1.4.3zm-.9-.2.6-.8-.2-.3-1 .4-.9.3q.3.8 1 1.2zm-.6-.7 1-.4-7.5-18.5-.9.4-1 .4 7.5 18.4zm-7.4-18.5v1h.8v-2h-.8zm.8 0-.9-.4-7.5 18.5.9.4 1 .3L579 172zm-7.5 18.5-1-.4-.1.2.5.9.5.9q.6-.4 1-1.2zm-.6.7-.6-.9-.3.1v2q.8 0 1.4-.4zm.7-5 1 .5 1.1-2.6-.9-.4-.9-.4-1.2 2.5zm1.2-2.5v1h11.8v-2h-11.8zm11.8 0-1 .4 1.3 2.6.9-.4.9-.5-1.2-2.5zm1.2 2.6v-1h-14.2v2h14.2zm20.6 4.5-.4 1zm-3.7-2.5-.7.7zm-2.4-3.9-1 .4zm0-9.4-1-.4zm2.4-3.8-.7-.7zm3.7-2.6-.4-.9zm8.5-.3-.3 1zm3.4 2-.6.8zm.4.4-1 .5.2.1zm.1.4-1 .1v.2zm-.3 1.4.7.7zm-1 .4v1h.1zm-1-.4-.7.8zm-2.4-1.5-.4 1zm-9.2 2.2-.7-.7zm-1.8 3 .9.3zm0 7.1-1 .4zm1.8 3-.7.6zm2.8 1.9-.5.9zm6.2.2.3 1v-.1zm2.6-1.5-.6-.8zm1-.3v1zm1 .4-.8.7zm.2 1.6.9.4zm-.4.5.7.8zm-3.4 2-.4-1zm-4 .6v-1q-2.1 0-4-.8l-.5 1-.4.9q2.4 1 5 1zm-4.5-.9.4-.9q-2-.8-3.4-2.3l-.7.7-.7.7q1.8 1.7 4 2.7zm-3.7-2.5.8-.7q-1.5-1.5-2.3-3.5l-1 .3-.9.4q1 2.4 2.7 4.2zm-2.4-3.9.9-.3q-.8-2-.8-4.4h-2q0 2.7 1 5.1zm-.9-4.7h1q0-2.4.8-4.3l-1-.4-.9-.4q-.9 2.4-.9 5.1zm.9-4.7.9.4a11 11 0 0 1 2.3-3.5l-.8-.7-.7-.7a13 13 0 0 0-2.7 4.1zm2.4-3.8.8.7q1.4-1.5 3.3-2.4l-.4-.9-.4-.9q-2.2 1-4 2.8zm3.7-2.6.4 1q2-.9 4.2-.9v-2q-2.6 0-5 1zm4.6-.9v1q2.1 0 3.6.5l.3-.9.4-1q-2-.6-4.3-.6zm4 .6-.4 1q1.5.5 3 1.8l.7-.8.6-.8q-1.8-1.5-3.6-2.1zm3.3 2-.6.8 1-.4.8-.5q-.2-.4-.6-.7zm.4.4-.8.6v-.1l1-.1 1-.2-.5-.9zm.1.4-1 .3h.1v.1h2l-.1-.8zm.1.4h-1l-.1.2.7.8.7.7q.7-.6.7-1.7zm-.4 1-.7-.8-.4.2.1 1 .1 1q.9 0 1.6-.7zm-1 .4v-1l-.5-.2-.6.8-.6.8q.8.6 1.8.6zm-1-.4.6-.8a10 10 0 0 0-2.6-1.6l-.4 1-.4.9q1 .3 2 1.3zm-2.4-1.5.4-.9q-1.5-.6-3.5-.6v2a7 7 0 0 1 2.7.4zm-3.1-.5v-1q-2 0-3.8.8l.5 1 .4.8q1.3-.6 2.9-.6zm-3.3.7-.5-.9a10 10 0 0 0-3 2.2l.7.7.7.7a8 8 0 0 1 2.5-1.8zm-2.8 2-.7-.7q-1.5 1.4-2 3.3l.9.4.9.3q.7-1.5 1.6-2.6zm-1.8 3-1-.4q-.7 1.8-.7 3.9h2q0-1.7.6-3.2zm-.7 3.5h-1q0 2 .7 4l1-.4.9-.4q-.6-1.4-.6-3.2zm.7 3.6-1 .4q.8 1.8 2 3.2l.8-.7.7-.7a8 8 0 0 1-1.6-2.6zm1.8 3-.7.6q1.4 1.5 3 2.2l.5-1 .4-.8a8 8 0 0 1-2.5-1.8zm2.8 1.9-.5.9q1.8.8 3.8.8v-2q-1.5 0-3-.6zm3.3.7v1a9 9 0 0 0 3.2-.6l-.3-1-.4-.9a7 7 0 0 1-2.5.5zm2.9-.5.3.9q1.5-.7 2.9-1.6l-.6-.8-.6-.8q-1.2.9-2.4 1.3zm2.6-1.5.6.8.3-.1.2-1v-1q-1-.1-1.7.5zm1-.3v1h.2l.8-.6.7-.7q-.6-.6-1.6-.7zm1 .4-.8.7.1.3h2q0-1-.6-1.7zm.3 1h-1v.2l.9.4 1 .4.1-1zm-.1.6-1-.4v.2l.6.7.7.7q.5-.3.6-.8zm-.4.5-.6-.8q-1.4 1.2-3.2 1.8l.4 1 .3 1a13 13 0 0 0 3.8-2.2zm-3.4 2-.4-1q-1.6.6-3.5.6v2q2.3 0 4.2-.7zm23.9-.2-.4.9zM634 188l-.7.7zm-2.4-3.8-1 .3zm0-9.7-1-.4zm2.4-3.8-.7-.7zm3.8-2.5.4 1zm9.6 0-.4 1zm3.8 2.5-.7.7zm2.5 3.8.9-.4zm0 9.7.9.3zm-2.5 3.8.7.7zm-3.8 2.5.4.9zm-1.2-2.7.4 1zm2.9-2 .7.8zm1.8-2.9-1-.3zm0-7.2-1 .3zm-1.8-3-.8.7zm-2.9-1.9-.4 1zm-7.2 0-.4-1zm-2.8 2-.7-.7zm0 13-.7.8zm2.8 2-.4 1zm2.6-23.2-.7.7zm0-2.1-.7-.7zm3-3-.8-.7zm2.4 1.7 1 .3zm-.3.5-.6-.8h-.1zm-2.9 2.9-.7-.7zm-1.2 26.7v-1a12 12 0 0 1-4.4-.8l-.4 1-.4.9q2.5 1 5.2 1zm-4.8-.8.4-1q-2-.8-3.5-2.2l-.7.7-.7.7q1.8 1.6 4.1 2.7zM634 188l.7-.7q-1.3-1.5-2.2-3.5l-1 .4-.8.3q1 2.4 2.6 4.2zm-2.4-3.8 1-.4q-.9-2.1-.9-4.5h-2q0 2.8 1 5.2zm-.9-4.9h1q0-2.4.8-4.5l-1-.3-.8-.4a14 14 0 0 0-1 5.2zm.9-4.8 1 .3q.8-2 2.1-3.4l-.7-.7-.7-.7q-1.7 1.7-2.6 4.1zm2.4-3.8.7.7q1.4-1.4 3.5-2.3l-.4-.9-.4-1q-2.5 1-4 2.8zm3.8-2.5.4 1q2-.9 4.4-.9v-2q-2.7 0-5.2 1zm4.8-.9v1q2.5 0 4.4.8l.4-.9.4-1q-2.4-.9-5.2-.9zm4.8.9-.3 1q2 .7 3.4 2.2l.7-.7.7-.7q-1.7-1.8-4.1-2.7zm3.8 2.5-.7.7q1.5 1.5 2.2 3.4l1-.3.9-.4a12 12 0 0 0-2.7-4.1zm2.5 3.8-1 .3q.8 2.1.8 4.5h2a14 14 0 0 0-.9-5.2zm.8 4.8h-1q0 2.4-.8 4.5l1 .4.9.3q1-2.4 1-5.2zm-.8 4.9-1-.4q-.7 2-2.2 3.5l.7.7.7.7q1.7-1.8 2.7-4.2zm-2.5 3.8-.7-.7q-1.5 1.5-3.4 2.2l.3 1 .4.9q2.4-1 4.1-2.7zm-3.8 2.5-.3-1q-2 .8-4.5.8v2q2.8 0 5.2-1zm-4.8-2v1a10 10 0 0 0 4-.8l-.4-.9-.4-.9a8 8 0 0 1-3.2.6zm3.6-.7.4 1a10 10 0 0 0 3.2-2.2l-.7-.7-.8-.7a8 8 0 0 1-2.5 1.7zm2.9-2 .7.8q1.4-1.4 2-3.3l-1-.4-.9-.3q-.5 1.5-1.6 2.6zm1.8-2.9 1 .4q.6-1.8.6-4h-2q0 1.8-.5 3.3zm.6-3.6h1q0-2.2-.7-4l-1 .4-.8.3q.5 1.5.5 3.3zm-.6-3.6 1-.4a9 9 0 0 0-2.1-3.2l-.7.7-.8.7q1.1 1 1.6 2.5zm-1.8-3 .7-.6q-1.4-1.5-3.2-2.2l-.4 1-.4.8q1.5.6 2.5 1.7zm-2.9-1.9.4-1a10 10 0 0 0-4-.7v2a8 8 0 0 1 3.2.6zm-3.6-.7v-1q-2 0-4 .8l.4 1 .4.8q1.4-.6 3.2-.6zm-3.6.7-.4-1a9 9 0 0 0-3.1 2.3l.7.7.7.6q1.1-1 2.5-1.7zm-2.8 2-.7-.7q-1.4 1.4-2 3.2l.9.4 1 .3q.5-1.5 1.5-2.6zm-1.8 2.9-1-.4q-.6 1.8-.7 4h2q0-1.8.6-3.3zm-.7 3.6h-1q0 2.2.8 4l.9-.4 1-.3q-.7-1.5-.7-3.3zm.7 3.6-1 .4q.8 1.8 2 3.3l.8-.7.7-.7a8 8 0 0 1-1.6-2.6zm1.8 3-.7.7q1.4 1.3 3.1 2.1l.4-.9.4-.9a8 8 0 0 1-2.5-1.7zm2.8 2-.4.8q2 .8 4 .8v-2q-1.7 0-3.2-.6zm3.8-22.9v-1l-.5-.1-.7.7-.6.7q.7.7 1.8.7zm-1.2-.4.8-.7-.2-.4h-2q0 1 .7 1.8zm-.4-1.1h1l.1-.4-.7-.6-.8-.7q-.6.7-.6 1.7zm.4-1 .7.7 3-3-.8-.7-.7-.7-3 3zm3-3 .6.7.4-.1v-2q-1 0-1.8.7zm1-.4v1l.4.1.7-.7.7-.7q-.7-.7-1.8-.7zm1.1.4-.7.7.1.4h2q0-1-.7-1.8zm.4 1.1h-1v.3l1 .3.9.3.1-.9zm0 .6-1-.3.6.8.7.7q.4-.3.6-.9zm-.4.5-.7-.7-2.9 2.9.7.7.7.7 3-2.9zm-2.9 2.9-.7-.7-.3.1v2q1 0 1.7-.7zm25 26-.7.7zm0-22.6-.7-.7zm2.4.2.8-.6zm13 17.4-.8.6a1 1 0 0 0 1.8-.6zm.5-17.6.7.8zm2.2 0-.7.7zm-1.8 23-.4.8h.1zm-.5-.5-.8.6zm-13-17.4.7-.6a1 1 0 0 0-1.8.6zm-.5 17.5-.7-.7zm-1.1.4v-1l-.4-.1-.8.7-.7.7q.8.7 1.9.7zm-1.2-.4.8-.7-.2-.4h-2q0 1 .7 1.8zm-.4-1.1h1v-20.3h-2v20.3zm0-20.3h1q0-.4.2-.4l-.8-.8-.7-.7q-.7.8-.7 1.9zm.4-1.2.8.8.4-.2v-2q-1.1 0-1.9.7zm1.2-.4v1l.4.2.8-.6.7-.7q-.8-.9-2-.9zm1.2.6-.8.6 13 17.4.8-.6.8-.6-13-17.4zm13 17.4h1v-16.4h-2v16.4zm0-16.4h1q0-.4.2-.4l-.7-.8-.7-.7q-.8.8-.8 1.9zm.5-1.2.7.8.4-.2v-2q-1 0-1.8.7zm1.1-.4v1l.4.1.7-.7.7-.6q-.7-.9-1.8-.8zm1.1.4-.7.8.1.4h2q0-1.1-.7-1.9zm.4 1.2h-1v20.3h2v-20.3zm0 20.3h-1l-.1.4.7.7.7.7q.7-.8.7-1.8zm-.4 1-.7-.6-.4.1v2q1 0 1.8-.7zm-1.1.5v-1h-.3l-.4 1-.3.9 1 .1zm-.7 0 .5-1-.2-.1-.8.6-.8.6q.4.5 1 .7zm-.5-.5.8-.6-13-17.4-.9.6-.8.6 13.1 17.4zm-13-17.4h-1v16.4h2V173zm0 16.4h-1l-.2.4.7.7.7.7q.7-.7.7-1.8zm-.5 1-.8-.6-.3.1v2q1 0 1.8-.7zm49.5 0-.7.8zm0-22.5.7.8zm15.8 0-.8.7zm0 2 .6.8zm-13.2.5v-1a1 1 0 0 0-1 1zm0 7.3h-1q.1.9 1 1zm9.8.4-.7.7zm0 2 .6.8zm-9.8.4v-1a1 1 0 0 0-1 1zm0 7.5h-1q.1 1 1 1zm13.1.4.7-.7zm0 2.1.7.8zm-14.6.4v-1l-.4-.1-.7.7-.7.7q.7.7 1.8.7zm-1.1-.4.7-.7-.2-.4h-2q0 1 .8 1.8zm-.5-1.1h1v-20.3h-2v20.3zm0-20.3h1q0-.4.2-.4l-.7-.8-.7-.7q-.8.8-.8 1.9zm.5-1.2.7.8.4-.2v-2q-1 0-1.8.7zm1-.4v1h13.6v-2h-13.5zm13.6 0v1l.4.1.8-.7.7-.7q-.8-.7-1.9-.7zm1.1.4-.6.8v.3h2q0-1-.7-1.8zm.5 1h-1l-.1.4.6.7.7.7q.8-.6.8-1.7zm-.4 1-.7-.6h-.5v2q1 0 1.8-.6zm-1.2.5v-1h-12v2h12zm-12 0h-1v7.3h2v-7.3zm0 7.3v1h8.6v-2h-8.6zm8.6 0v1l.5.1.7-.7.7-.7q-.8-.7-1.9-.7zm1.2.4-.7.7v.3h2q0-1-.7-1.7zm.4 1h-1l-.1.4.7.7.7.7q.6-.7.7-1.8zm-.4 1-.7-.7-.4.1v2q1 0 1.7-.6zm-1.1.4v-1h-8.7v2h8.6zm-8.7 0h-1v7.5h2v-7.5zm0 7.5v1h12v-2h-12zm12 0v1q.4 0 .5.2l.6-.8.7-.7q-.7-.7-1.8-.7zm1.1.4-.6.8v.3h2q0-1-.7-1.8zm.5 1h-1q0 .4-.2.4l.8.7.7.7q.7-.6.7-1.7zm-.4 1.1-.7-.7-.5.1v2q1 0 1.8-.6zm-1.2.4v-1h-13.5v2h13.5zm15.3-.4-.7.7zm0-22.6-.6-.7zm2.7 20h-1q.1.9 1 1zm12 .4.7-.7zm0 2.2.7.7zm-13.5.4v-1l-.4-.1-.8.7-.7.7q.8.7 1.9.7zm-1.2-.4.8-.7-.2-.4h-2q0 1 .7 1.8zm-.4-1.1h1v-20.3h-2v20.3zm0-20.3h1q0-.3.2-.4l-.7-.8-.7-.7q-.8.8-.8 1.9zm.5-1.2.7.8q.1-.2.4-.2v-2q-1 0-1.8.7zm1-.4v1q.3 0 .5.2l.7-.8.7-.7q-.7-.7-1.8-.7zm1.2.4-.7.8.1.4h2q0-1.1-.7-1.9zm.4 1.2h-1v18.7h2v-18.7zm0 18.7v1h10.9v-2h-10.9zm10.9 0v1q.3 0 .4.2l.7-.7.7-.7q-.7-.8-1.8-.8zm1 .5-.6.7.1.4h2q0-1.1-.7-1.8zm.5 1h-1l-.1.5.7.7.7.7q.7-.7.7-1.8zm-.4 1.2-.7-.7-.4.1v2q1 0 1.8-.7zm-1.1.4v-1h-12.4v2H764zm14.7-.4-.7.7zm0-22.6.7.8zm15.8 0-.7.7zm0 2 .7.8zm-13.1.5v-1a1 1 0 0 0-1 1zm0 7.3h-1q0 .9 1 1zm9.7.4-.7.7zm0 2 .7.8zm-9.7.4v-1a1 1 0 0 0-1 1zm0 7.5h-1q0 1 1 1zm13.1.4.7-.7zm0 2.1.7.8zm-14.7.4v-1l-.4-.1-.7.7-.7.7q.8.7 1.8.7zm-1-.4.6-.7-.1-.4h-2q0 1 .7 1.8zm-.5-1.1h1v-20.3h-2v20.3zm0-20.3h1l.1-.4-.7-.8-.7-.7q-.7.8-.7 1.9zm.4-1.2.7.8.4-.2v-2q-1 0-1.8.7zm1.1-.4v1h13.6v-2h-13.6zm13.6 0v1l.4.1.7-.7.7-.7q-.8-.7-1.8-.7zm1.1.4-.7.8.1.3h2q0-1-.7-1.8zm.4 1h-1v.4l.6.7.7.7q.7-.6.7-1.7zm-.4 1-.7-.6h-.4v2q1 0 1.8-.6zm-1.1.5v-1h-12v2h12zm-12 0h-1v7.3h2v-7.3zm0 7.3v1h8.6v-2h-8.6zm8.6 0v1l.4.1.7-.7.7-.7q-.7-.7-1.8-.7zm1.1.4-.7.7.1.3h2q0-1-.7-1.7zm.4 1h-1v.4l.6.7.7.7q.7-.7.7-1.8zm-.4 1-.7-.7-.4.1v2q1 0 1.8-.6zm-1.1.4v-1h-8.6v2h8.6zm-8.6 0h-1v7.5h2v-7.5zm0 7.5v1h12v-2h-12zm12 0v1q.4 0 .4.2l.7-.8.7-.7q-.8-.7-1.8-.7zm1.1.4-.7.8.1.3h2q0-1-.7-1.8zm.4 1h-1l-.1.4.7.7.7.7q.7-.6.7-1.7zm-.4 1.1-.7-.7-.4.1v2q1 0 1.8-.6zm-1.1.4v-1h-13.6v2h13.6zm20.8-.6-.4 1zm-3.7-2.5-.7.7zm-2.4-3.9-1 .4zm0-9.4-1-.4zm2.4-3.8-.7-.7zm3.7-2.6-.4-.9zm8.5-.3-.3 1zm3.4 2-.6.8zm.4.4-1 .5.2.1zm.1.4-1 .1v.2zm-.3 1.4.7.7zm-1 .4v1h.1zm-1-.4-.7.8zm-2.4-1.5-.4 1zm-9.2 2.2-.7-.7zm-1.8 3 .9.3zm0 7.1-1 .4zm1.8 3-.7.6zm2.8 1.9-.5.9zm6.2.2.3 1v-.1zm2.6-1.5-.6-.8zm1-.3v1zm1 .4-.8.7zm.2 1.6.9.4zm-.4.5.7.8zm-3.5 2-.3-1zm-3.8.6v-1q-2.2 0-4.2-.8l-.4 1-.4.9q2.4 1 5 1zm-4.6-.9.4-.9q-2-.8-3.4-2.3l-.7.7-.7.7q1.8 1.7 4 2.7zm-3.7-2.5.8-.7q-1.5-1.5-2.3-3.5l-1 .3-.9.4q1 2.4 2.7 4.2zm-2.4-3.9.9-.3q-.8-2-.8-4.4h-2q0 2.7 1 5.1zm-.9-4.7h1q0-2.4.8-4.3l-1-.4-.9-.4q-.9 2.4-.9 5.1zm.9-4.7.9.4a11 11 0 0 1 2.3-3.5l-.8-.7-.7-.7a13 13 0 0 0-2.7 4.1zm2.4-3.8.8.7q1.4-1.5 3.3-2.4l-.4-.9-.4-.9q-2.2 1-4 2.8zm3.7-2.6.4 1q2-.9 4.2-.9v-2q-2.6 0-5 1zm4.6-.9v1q2.1 0 3.6.5l.3-.9.4-1q-2-.6-4.3-.6zm4 .6-.4 1q1.5.5 3 1.8l.7-.8.6-.8q-1.8-1.5-3.6-2.1zm3.3 2-.6.8 1-.4.8-.5q-.2-.4-.6-.7zm.4.4-.8.6v-.1l1-.1 1-.2-.5-.9zm.1.4-1 .3.1.1h2l-.1-.8zm.1.4h-1l-.1.2.7.8.7.7q.6-.6.7-1.7zm-.4 1-.7-.8-.4.2.1 1 .1 1q.9 0 1.6-.7zm-1 .4v-1l-.5-.2-.6.8-.6.8q.8.6 1.8.6zm-1-.4.6-.8a10 10 0 0 0-2.6-1.6l-.4 1-.4.9q1 .3 2 1.3zm-2.4-1.5.4-.9q-1.4-.6-3.5-.6v2a7 7 0 0 1 2.7.4zm-3.1-.5v-1q-2 0-3.8.8l.4 1 .5.8q1.3-.6 2.9-.6zm-3.4.7-.4-.9a10 10 0 0 0-3 2.2l.7.7.7.7a8 8 0 0 1 2.5-1.8zm-2.7 2-.7-.7q-1.4 1.4-2 3.3l.9.4.9.3q.6-1.5 1.6-2.6zm-1.8 3-1-.4q-.7 1.8-.7 3.9h2q0-1.7.6-3.2zm-.7 3.5h-1q0 2 .7 4l1-.4.9-.4q-.6-1.4-.6-3.2zm.7 3.6-1 .4q.8 1.8 2 3.2l.8-.7.7-.7a8 8 0 0 1-1.6-2.6zm1.8 3-.7.6q1.4 1.5 3 2.2l.4-1 .5-.8a8 8 0 0 1-2.5-1.8zm2.8 1.9-.5.9q1.8.8 3.8.8v-2q-1.5 0-3-.6zm3.3.7v1a9 9 0 0 0 3.2-.6l-.3-1-.4-.9a7 7 0 0 1-2.5.5zm2.9-.5.3.9q1.5-.7 2.9-1.6l-.6-.8-.6-.8q-1.2.9-2.4 1.3zm2.6-1.5.6.8.3-.1.2-1v-1q-1-.1-1.7.5zm1-.3v1h.2l.8-.6.7-.7q-.6-.6-1.6-.7zm1 .4-.8.7.1.3h2q0-1-.6-1.7zm.3 1h-1v.2l.9.4 1 .4.1-1zm-.1.6-1-.4v.2l.6.7.7.7q.4-.3.6-.8zm-.4.5-.6-.8q-1.5 1.2-3.2 1.8l.4 1 .3 1a13 13 0 0 0 3.8-2.2zm-3.5 2-.3-1q-1.7.6-3.5.6v2q2.3 0 4.2-.7zm23.8-.1-.7.7zm-.4-23v-1a1 1 0 0 0-1 1zm3 0h1q0-1-1-1zm-.4 23 .7.7zM838.5 170l-.7.7zm0-2-.7-.8zm18.2 0-.8.6zm0 2 .7.7zm-9 21v-1q-.4 0-.5-.2l-.7.7-.7.7q.8.7 1.8.7zm-1.2-.5.7-.7-.1-.4h-2q0 1 .7 1.8zm-.4-1.1h1v-21.9h-2v21.9zm0-21.9v1h3v-2h-3zm3 0h-1v21.9h2v-21.9zm0 21.9h-1v.4l.6.7.7.7q.8-.7.8-1.8zm-.4 1-.7-.6-.4.1v2q1.1 0 1.8-.7zm-9.1-20v-1l-.4-.1-.7.7-.6.7q.6.7 1.7.7zm-1-.4.7-.7-.1-.4h-2q0 1 .6 1.8zm-.5-1h1l.1-.4-.7-.7-.7-.7q-.6.7-.6 1.7zm.4-1 .7.6.4-.1v-2q-1 0-1.8.7zm1-.5v1h16.1v-2h-16zm16.1 0v1l.3.1.8-.7.7-.7q-.7-.7-1.8-.7zm1 .4-.6.8v.2h2q0-1-.7-1.7zm.5 1h-1l-.1.4.7.7.7.7q.7-.7.7-1.8zm-.4 1-.7-.6h-.4v2q1 0 1.8-.6zm-1 .5v-1h-16.1v2h16zm14.3 20-.7.8zm0-22.5.7.8zm10.5.6-.5.8zm2.7 2.5-.9.5zm0 7.5-.9-.5zm-2.7 2.5.4.9zm-7.8.9v-1a1 1 0 0 0-1 1zm-.5 8.6-.7-.7zm10.6.2-.5 1zm-.6-.5.8-.5zm-5.4-8.7-.3-1a1 1 0 0 0-.6 1.5zm3-.9.9-.5a1 1 0 0 0-1.2-.5zm5 8 .8-.6zm0 1.6 1 .4zm-12-11.2h-1q0 1 1 1zm6.2-.5.5 1v-.1zm1.7-1.5.8.6zm-1.7-6-.5.8zm-6.2-.6v-1a1 1 0 0 0-1 1zM871 191v-1l-.4-.1-.7.7-.7.7q.8.7 1.8.7zm-1.1-.4.7-.7-.2-.4h-2q0 1 .8 1.8zm-.5-1.1h1v-20.3h-2v20.3zm0-20.3h1q0-.4.2-.4l-.7-.8-.7-.7q-.8.8-.8 1.9zm.5-1.2.7.8.4-.2v-2q-1 0-1.8.7zm1-.4v1h5.5v-2H871zm5.5 0v1q2 0 3.5.8l.5-.8.5-1q-2.1-1-4.5-1zm4 1-.5.8q1.5.9 2.3 2.2l.9-.5.8-.5a8 8 0 0 0-3-3zm2.7 2.5-.9.6q.9 1.4.9 3.3h2q0-2.4-1.2-4.4zm1 3.9h-1q0 1.8-.9 3l.9.6.8.5a8 8 0 0 0 1.2-4.1zm-1 3.6-.9-.5q-.8 1.4-2.3 2.1l.5.9.4.9a8 8 0 0 0 3.1-2.9zm-2.7 2.5-.5-.9q-1.5.8-3.5.8v2q2.4 0 4.4-1zm-4 .9v-1h-3.8v2h3.8zm-3.8 0h-1v7.5h2V182zm0 7.5h-1l-.2.4.7.7.7.7q.8-.7.8-1.8zm-.5 1-.7-.6-.4.1v2q1 0 1.8-.7zm11.3.5v-1h-.3l-.4.8-.5 1 1.2.2zm-.7-.2.4-.8-.2-.2-.8.5-.9.5 1 1zm-.6-.5.8-.5-5.4-8.7-.8.5-.9.5 5.4 8.7zm-5.4-8.7.3 1 3-1-.3-.9-.3-1-3 1zm3-.9-.8.5 4.9 8 .8-.6.9-.5-5-8zm5 8-.9.5q.3.5.1.6l.9.5.9.4q.6-1.4-.2-2.6zm0 1.6-.8-.5-.1.2h-.4v2q.8 0 1.3-.3.7-.3 1-1zM872.8 179v1h3.8v-2h-3.8zm3.8 0v1q1.5 0 2.9-.6l-.5-.9-.4-.9q-.9.4-2 .4zm2.4-.5.5.9q1.2-.6 2-1.8l-.8-.6-.9-.5q-.5.7-1.2 1.1zm1.7-1.5.8.6a5 5 0 0 0 .8-2.7h-2a3 3 0 0 1-.5 1.6zm.6-2.1h1q0-1.5-.8-2.9l-.8.5-.9.5q.5.9.5 1.9zm-.6-2.4.8-.5a5 5 0 0 0-2-2l-.5 1-.5.8q.9.4 1.3 1.2zm-1.7-1.6.5-.8a6 6 0 0 0-3-.7v2a4 4 0 0 1 2 .4zm-2.4-.5v-1h-3.8v2h3.8zm-3.8 0h-1v8.6h2v-8.6zm30.8 20-.4.9zm-3.8-2.5-.7.7zm-2.4-3.8-1 .3zm0-9.7-1-.4zm2.4-3.8-.7-.7zm3.8-2.5.4 1zm9.6 0-.4 1zm3.8 2.5-.7.7zm2.5 3.8.9-.4zm0 9.7.9.3zm-2.5 3.8.7.7zm-3.8 2.5.4.9zm-1.2-2.7.4 1zm2.8-2 .8.8zm1.9-2.9-1-.3zm0-7.2-1 .3zm-1.9-3-.7.7zm-2.8-1.9-.4 1zm-7.2 0-.4-1zm-2.8 2-.7-.7zm0 13-.7.8zm2.8 2-.4 1zm2.6-23.2-.7.7zm0-2.1-.7-.7zm3-3-.8-.7zm2.4 1.7 1 .3zm-.3.5-.7-.8zm-3 2.9-.6-.7zm-1 26.7v-1a12 12 0 0 1-4.5-.8l-.4 1-.4.9q2.4 1 5.2 1zm-5-.8.5-1q-2-.8-3.5-2.2l-.7.7-.7.7q1.8 1.6 4.1 2.7zm-3.7-2.5.7-.7q-1.5-1.5-2.2-3.5l-1 .4-.9.3q1 2.4 2.7 4.2zm-2.4-3.8 1-.4q-.9-2.1-.9-4.5h-2q0 2.8 1 5.2zm-.9-4.9h1q0-2.4.8-4.5l-1-.3-.9-.4a14 14 0 0 0-.9 5.2zm.9-4.8 1 .3q.7-2 2.1-3.4l-.7-.7-.7-.7q-1.7 1.7-2.6 4.1zm2.4-3.8.7.7q1.5-1.4 3.5-2.3l-.4-.9-.4-1q-2.4 1-4.1 2.8zm3.8-2.5.4 1q2-.9 4.4-.9v-2q-2.8 0-5.2 1zm4.8-.9v1q2.5 0 4.4.8l.4-.9.4-1q-2.4-.9-5.2-.9zm4.8.9-.4 1q2 .7 3.5 2.2l.7-.7.7-.7q-1.7-1.8-4.1-2.7zm3.8 2.5-.7.7q1.5 1.5 2.2 3.4l1-.3.9-.4a12 12 0 0 0-2.7-4.1zm2.5 3.8-1 .3q.9 2.1.8 4.5h2a14 14 0 0 0-1-5.2zm.8 4.8h-1q0 2.4-.8 4.5l1 .4.9.3q1-2.4 1-5.2zm-.8 4.9-1-.4q-.8 2-2.2 3.5l.7.7.7.7q1.7-1.8 2.7-4.2zm-2.5 3.8-.7-.7q-1.5 1.5-3.5 2.2l.4 1 .4.9q2.4-1 4.1-2.7zm-3.8 2.5-.4-1q-1.9.8-4.4.8v2q2.8 0 5.2-1zm-4.8-2v1a10 10 0 0 0 4-.8l-.4-.9-.4-.9a8 8 0 0 1-3.2.6zm3.6-.7.4 1a10 10 0 0 0 3.2-2.2l-.8-.7-.7-.7a8 8 0 0 1-2.5 1.7zm2.8-2 .8.8q1.3-1.4 2-3.3l-1-.4-.9-.3q-.5 1.5-1.6 2.6zm1.9-2.9.9.4q.7-1.8.7-4h-2q0 1.8-.6 3.3zm.6-3.6h1q0-2.2-.7-4l-1 .4-.9.3q.6 1.5.6 3.3zm-.6-3.6 1-.4a9 9 0 0 0-2.1-3.2l-.8.7-.7.7q1.1 1 1.6 2.5zm-1.9-3 .8-.6q-1.4-1.5-3.2-2.2l-.4 1-.4.8q1.5.6 2.5 1.7zm-2.8-1.9.4-1a10 10 0 0 0-4-.7v2a8 8 0 0 1 3.2.6zm-3.6-.7v-1q-2 0-4 .8l.4 1 .4.8q1.5-.6 3.2-.6zm-3.6.7-.4-1a9 9 0 0 0-3.1 2.3l.7.7.7.6q1.1-1 2.5-1.7zm-2.8 2-.7-.7q-1.4 1.4-2 3.2l.9.4.9.3q.6-1.5 1.6-2.6zm-1.8 2.9-1-.4q-.7 1.8-.7 4h2q0-1.8.6-3.3zm-.7 3.6h-1q0 2.2.7 4l1-.4.9-.3q-.6-1.5-.6-3.3zm.7 3.6-1 .4q.8 1.8 2 3.3l.8-.7.7-.7a8 8 0 0 1-1.6-2.6zm1.8 3-.7.7q1.4 1.3 3.1 2.1l.4-.9.4-.9a8 8 0 0 1-2.5-1.7zm2.8 2-.4.8q2 .8 4 .8v-2q-1.7 0-3.2-.6zm3.7-22.9v-1l-.4-.1-.7.7-.7.7q.8.7 1.8.7zm-1-.4.7-.7-.2-.4h-2q0 1 .7 1.8zm-.5-1.1h1l.1-.4-.7-.6-.8-.7q-.6.7-.6 1.7zm.4-1 .7.7 3-3-.8-.7-.7-.7-3 3zm3-3 .6.7.4-.1v-2q-1 0-1.8.7zm1-.4v1l.4.1.7-.7.7-.7q-.7-.7-1.8-.7zm1.1.4-.7.7.1.4h2q0-1-.7-1.8zm.4 1.1h-1v.3l1 .3.9.3.1-.9zm0 .6-1-.3.6.8.7.7q.4-.3.6-.9zm-.4.5-.7-.7-3 2.9.8.7.7.7 3-2.9zm-3 2.9-.6-.7-.4.1v2q1 0 1.8-.7zm25.1 26-.7.7zm0-22.6-.7-.7zm2.3.2.8-.6zm13.1 17.4-.8.6a1 1 0 0 0 1.8-.6zm.5-17.6.7.8zm2.2 0-.7.7zm-1.8 23-.4.8h.1zm-.5-.5-.8.6zm-13-17.4.7-.6a1 1 0 0 0-1.8.6zm-.5 17.5-.8-.7zm-1.2.4v-1l-.4-.1-.7.7-.7.7q.8.7 1.8.7zm-1-.4.7-.7-.2-.4h-2q0 1 .7 1.8zm-.5-1.1h1v-20.3h-2v20.3zm0-20.3h1l.1-.4-.7-.8-.7-.7q-.7.8-.7 1.9zm.4-1.2.7.8.4-.2v-2q-1 0-1.8.7zm1.1-.4v1q.3 0 .5.2l.7-.6.8-.7q-.8-.9-2-.9zm1.2.6-.8.6 13.1 17.4.8-.6.8-.6-13-17.4zm13.1 17.4h1v-16.4h-2v16.4zm0-16.4h1q0-.4.2-.4l-.7-.8-.7-.7q-.8.8-.8 1.9zm.5-1.2.7.8.4-.2v-2q-1 0-1.8.7zm1-.4v1l.5.1.7-.7.7-.6q-.7-.9-1.8-.8zm1.2.4-.7.8.1.4h2q0-1.1-.7-1.9zm.4 1.2h-1v20.3h2v-20.3zm0 20.3h-1l-.1.4.7.7.7.7q.7-.8.7-1.8zm-.4 1-.7-.6-.4.1v2q1 0 1.8-.7zm-1.1.5v-1h-.4l-.3 1-.3.9 1 .1zm-.7 0 .4-1-.1-.1-.8.6-.8.6q.4.5 1 .7zm-.5-.5.8-.6-13-17.4-.9.6-.8.6 13 17.4zm-13-17.4h-1v16.4h2V173zm0 16.4h-1q0 .3-.3.4l.8.7.7.7q.7-.7.7-1.8zm-.5 1-.8-.6-.4.1v2q1.1 0 1.9-.7zm31.7 0-.7.8zm0-22.5.7.8zm2.2 0-.7.7zm0 22.6-.7-.7zm-1.1.4v-1l-.4-.1-.7.7-.7.7q.7.7 1.8.7zm-1.1-.4.7-.7-.2-.4h-2q0 1 .8 1.8zm-.5-1.1h1v-20.3h-2v20.3zm0-20.3h1q0-.4.2-.4l-.7-.8-.7-.7q-.8.8-.8 1.9zm.5-1.2.7.8.4-.2v-2q-1 0-1.8.7zm1-.4v1l.5.1.7-.7.7-.6q-.7-.9-1.8-.8zm1.2.4-.7.8.1.4h2q0-1.1-.7-1.9zm.4 1.2h-1v20.3h2v-20.3zm0 20.3h-1l-.1.4.7.7.7.7q.7-.7.7-1.8zm-.4 1-.7-.6-.4.1v2q1 0 1.8-.7zm21.4 0-.4.8zm-3.7-2.6-.7.7zm-2.5-3.9-1 .4h.1zm0-9.4-.9-.4zm2.5-3.8-.7-.7zm3.7-2.6-.4-.9zm8.5-.3-.4 1zm3.4 2-.7.8zm.3.4-.9.5.1.1zm.2.4-1 .1v.2zm-.4 1.4.7.7zm-1 .4.1 1zm-1-.4-.7.8zm-2.4-1.5-.4 1zm-9.2 2.2-.7-.7zm-1.8 3 1 .3zm0 7.1-1 .4zm1.8 3-.7.6zm2.8 1.9-.4.9zm6.2.2.4 1v-.1zm2.6-1.5-.5-.8zm1.1-.3-.1 1zm.9.4-.7.7zm.2 1.6 1 .4zm-.3.5.6.8zm-3.5 2-.3-1zm-3.9.6v-1q-2.3 0-4.1-.8l-.4 1-.4.9q2.3 1 5 1zm-4.5-.9.4-.9q-2-.8-3.4-2.3l-.7.7-.7.7q1.7 1.7 4 2.7zm-3.7-2.5.7-.7q-1.5-1.5-2.3-3.5l-.9.3-.9.4q.9 2.4 2.7 4.2zm-2.5-3.9 1-.3q-.9-2-.9-4.4h-2q0 2.7 1 5.1zm-.9-4.7h1q0-2.4.8-4.3l-.9-.4-1-.4q-.8 2.4-.9 5.1zm1-4.7.8.4a11 11 0 0 1 2.3-3.5l-.7-.7-.7-.7a13 13 0 0 0-2.7 4.1zm2.4-3.8.7.7q1.4-1.5 3.4-2.4l-.4-.9-.4-.9q-2.4 1-4 2.8zm3.7-2.6.4 1q1.8-.9 4.1-.9v-2q-2.6 0-5 1zm4.5-.9v1q2.3 0 3.6.5l.4-.9.3-1q-1.8-.6-4.3-.6zm4 .6-.4 1q1.5.5 3.1 1.8l.7-.8.6-.8q-1.8-1.5-3.7-2.1zm3.4 2-.6.8 1-.4.8-.5-.7-.7zm.3.4-.8.6v-.1l1-.1 1-.2q0-.5-.4-.9zm.2.4-1 .3v.1h2v-.8zm0 .4h-1v.2l.6.8.7.7q.8-.6.8-1.7zm-.4 1-.6-.8-.4.2v1l.2 1q.8 0 1.5-.7zm-1 .4v-1l-.4-.2-.6.8-.6.8q.7.6 1.7.6zm-1-.4.6-.8a10 10 0 0 0-2.6-1.6l-.4 1-.3.9 2 1.3zm-2.4-1.5.4-.9q-1.4-.6-3.5-.6v2a7 7 0 0 1 2.8.4zm-3-.5v-1q-2 0-3.8.8l.4 1 .4.8q1.4-.6 3-.6zm-3.4.7-.4-.9a10 10 0 0 0-3 2.2l.6.7.8.7a8 8 0 0 1 2.4-1.8zm-2.8 2-.7-.7q-1.3 1.4-2 3.3l1 .4.8.3q.6-1.5 1.7-2.6zm-1.8 3-1-.4q-.7 1.8-.7 3.9h2q0-1.7.6-3.2zm-.7 3.5h-1q0 2 .8 4l1-.4.8-.4q-.6-1.4-.6-3.2zm.7 3.6-1 .4q.8 1.8 2.1 3.2l.7-.7.8-.7a8 8 0 0 1-1.7-2.6zm1.8 3-.7.6q1.4 1.5 3 2.2l.5-1 .4-.8a8 8 0 0 1-2.4-1.8zm2.8 1.9-.4.9q1.8.8 3.7.8v-2q-1.5 0-2.9-.6zm3.3.7v1a9 9 0 0 0 3.3-.6l-.4-1-.3-.9a7 7 0 0 1-2.6.5zm3-.5.3.9q1.6-.7 2.8-1.6l-.6-.8-.5-.8q-1.2.9-2.5 1.3zm2.5-1.5.6.8.4-.1.1-1 .1-1q-1-.1-1.7.5zm1.1-.3v1h.2l.7-.6.7-.7q-.7-.6-1.5-.7zm.9.4-.7.7v.3h2q0-1-.6-1.7zm.4 1h-1v.2l.8.4 1 .4.2-1zm-.2.6-.9-.4-.1.2.7.7.7.7.5-.8zm-.3.5-.6-.8q-1.5 1.2-3.2 1.8l.3 1 .3 1a13 13 0 0 0 3.8-2.2zm-3.5 2-.3-1q-1.6.6-3.6.6v2q2.3 0 4.2-.7zm15.7-.4-.8.5zm0-1.5.8.4zm8.4-20.2-1-.3zm3 0-1 .4zm8.4 20.2.9-.3zm-.2 1.6-.8-.6zm-2.1.4-.6.8zm-.6-.7 1-.4zm-7.4-18.5v-1a1 1 0 0 0-.9.4 1 1 0 0 0 0 1zm.8 0 1 .4a1 1 0 0 0-1-1.4zM1019 190l.9.4zm-.7.7-.5-.9zm.8-5-.9-.4a1 1 0 0 0 0 1q.4.5 1 .5zm1.2-2.5v-1a1 1 0 0 0-.9.6zm11.8 0 .9-.4a1 1 0 0 0-1-.6zm1.2 2.6v1q.5 0 .8-.5a1 1 0 0 0 0-1zm-15.8 5.1v-1q-.3 0-.4-.2l-.9.5-.8.5q.8 1.2 2.1 1.2zm-1.3-.7.9-.5q-.2-.3 0-.6l-1-.4-.9-.4q-.5 1.3.2 2.4zm0-1.5.9.4 8.4-20.2-1-.4-.9-.3-8.4 20zm8.4-20.2.9.4.2-.3.3-.1v-2a3 3 0 0 0-2.4 1.7zm1.4-1v1h.4l.2.4 1-.4.9-.3q-.3-.8-1-1.3t-1.5-.4zm1.5 1-1 .4 8.5 20.2 1-.4.9-.3-8.5-20.2zm8.5 20.2-1 .4q.2.5 0 .6l.8.6.9.5q.7-1.1.2-2.4zm-.2 1.6-.8-.6-.4.2v2q1.3 0 2-1zm-1.2.6v-1h-.4l-.5.8-.5.9q.6.3 1.4.3zm-1-.2.7-.8-.2-.3-1 .4-1 .3q.4.8 1 1.2zm-.5-.7 1-.4-7.5-18.5-1 .4-.8.4 7.4 18.4zm-7.4-18.5v1h.8v-2h-.8zm.8 0-1-.4-7.5 18.5 1 .4.9.3 7.6-18.4zM1019 190l-1-.4q0 .2-.2.2l.5.9.5.9q.8-.4 1-1.2zm-.7.7-.5-.9-.3.1v2q.8 0 1.4-.4zm.8-5 1 .5 1.1-2.6-.9-.4-.9-.4-1.2 2.5zm1.2-2.5v1h11.8v-2h-11.8zm11.8 0-1 .4 1.3 2.6.9-.4.9-.5-1.2-2.5zm1.2 2.6v-1H1019v2h14.2z"/>
  <path stroke="#465fff" stroke-linecap="round" stroke-width="8" d="M266.2 179h96"/>
  <path fill="#0f1138" fill-rule="evenodd" d="M87.9 70.3h54.6q3.3 1 6.4 3l33.5 34a17 17 0 0 1 3 11v56.8l-.7 20a22 22 0 0 1-12.5 15.9l-6 1.5H88.6q-16.2-3-19.2-18.9V89.2a23 23 0 0 1 18.5-19M90 83.5l46 .4q2.6 1.4 3.4 5l.3 19.6a12 12 0 0 0 9.8 8.7l17.4.4q4.5.3 5.2 5.3v68.4q-.7 6-6.4 7.6H89.4a10 10 0 0 1-6.8-7.6V91.5q1.1-6.5 7.5-8" clip-rule="evenodd"/>
  <path fill="#0f1138" fill-rule="evenodd" d="M100.7 172.4h54.2c4.3 2.3 5.5 5.2 3.4 9.8l-3.4 3h-54.2q-6.9-3-4.2-9.8 1.5-2.2 4.2-3m.7-23.1h52.8q6 2.4 4.9 9.1a7 7 0 0 1-5 4.2h-52.7q-7-2.3-5.3-9.1a7 7 0 0 1 5.3-4.2" clip-rule="evenodd"/>
  <path fill="#0f1138" fill-rule="evenodd" d="M91.3 7.4a73 73 0 0 1 55-3.7q.3-.3 1 .4h.3q4.5 1.2 8.8 3.8l1.5.7.8.4A70 70 0 0 1 193 50.2l1.2 4.2.4.7 8.6 1.6q8.7 1.5 16.2 6.4A56 56 0 0 1 244.6 96q1.4 4.6 2.1 10.2l.1.8v.7q.8 22.9-13.5 41.3-5.4 6-11.7 10.5-8 5-17 7.6-10.2 2.3-13.2-7.2-1.4-8 5.7-12l8.7-3.1.5-.3A38 38 0 0 0 226 118q2.2-27.9-22.2-39.3l-3.4-1.1-14.7-1.6q-7.5-1-10.2-7.5l-1.3-8.5-.5-2.4-.2-.8a59 59 0 0 0-15.3-23.1l-5.7-3.8-4.1-2.7-8.7-3.4-7.1-1.8q-10.5-1-20.8.6l-.7.1-5.3 1.5q-9 3-16.5 9.1L83.6 39l-5.3 7.2q-6 10.2-7.5 22.3-2.7 6-9 7.5A39 39 0 0 0 32 85.4l-.4.4a36 36 0 0 0-3.4 48.8l1.2 1.5a38 38 0 0 0 17.4 10.4l.6.2 3.8.7h.4q12.8 1 10.2 14-3.8 7.6-12 6.6a56 56 0 0 1-49-65.4l1.5-7.3.3-.7Q10 70.8 32.5 60.8l.7-.4 2-1.1a69 69 0 0 1 15.7-3.8l1.5-.4 3.8-11 .2-.4a59 59 0 0 1 17.9-24.9 59 59 0 0 1 16.2-11z" clip-rule="evenodd"/>
  <path fill="#465fff" d="M130.6 127.4q6.3 1.2 5.5 8a7 7 0 0 1-5 4.9h-30l-1.2-.4-.7-.4a6 6 0 0 1-3-3q-2-6.4 4-9.1z"/>
</svg>
