<svg xmlns="http://www.w3.org/2000/svg" fill="none" viewBox="0 0 661 571">
  <path fill="#001231" fill-rule="evenodd" d="M238 191h145q9 3 17 8l89 90q9 13 8 29v150l-2 53q-6 29-33 42l-16 4H240q-43-8-51-50V241q9-41 49-50m6 35 122 1q7 4 9 13l1 52a32 32 0 0 0 26 23l46 1q12 1 14 14v181q-2 16-17 20H242q-15-5-18-20V247q3-17 20-21" clip-rule="evenodd"/>
  <path fill="#001231" fill-rule="evenodd" d="M272 461h144c11.3 6 14.4 13.8 9.1 25.8L416 495H272q-18-8-11-26 4-6 11-8m2-61h140q16 6 13 24a18 18 0 0 1-13 11H274q-19-6-14-24 4-9 14-11" clip-rule="evenodd"/>
  <path fill="#001231" fill-rule="evenodd" d="M247.2 24.9a193 193 0 0 1 145.8-10q1.1-.8 3 1l.7.3q11.7 3 23.3 9.8l4 2 2 1a184 184 0 0 1 91 109l3 11 1 2 23 4a114 114 0 0 1 43 17q50 30 67 87 3.8 12.2 5.7 27l.3 2v2q2.4 60.7-36 109-14 16-31 28-21 13-45 20-27 6-35-19-4-21 15-32l23-8 1.3-.8A99 99 0 0 0 605 317q6-74-59-104l-9-3-39-4q-20.1-3-27-20l-3.5-22.4c-.8-2.9-.6-3.3-1.4-6.5l-.6-2A157 157 0 0 0 425 94l-15-10-11-7-23-9-19-5a218 218 0 0 0-55.3 1.7l-1.7.3-14 4q-24 8-44 24l-15 15-14 19a151 151 0 0 0-20 59 33 33 0 0 1-24 20 103 103 0 0 0-79 25l-1 1a92 92 0 0 0-29 52 94 94 0 0 0 20 77l3 4q18.3 19.3 46.2 27.5l1.8.5 10 2h1q33.9 2.5 27 37-10 20-32 17A148 148 0 0 1 7 276l4-19 .6-2A141 141 0 0 1 91 165.7l2-.8 5-3a183 183 0 0 1 42-10l4-1 10-29 .4-1.3q15.1-39 47.6-65.7 19-18 43-29z" clip-rule="evenodd"/>
  <path fill="#465fff" d="M351.5 342.1Q368 345.2 366 363q-3 10-13 13h-80l-3-1-2-1q-6-3-8-8-5-17 11-24h80z"/>
</svg>
